<svg width="25" height="24" viewBox="0 0 25 24" fill="none" xmlns="http://www.w3.org/2000/svg">
  <path fill-rule="evenodd" clip-rule="evenodd" d="M17.981 2C20.6697 2 22.8628 4.12231 22.9763 6.78311L22.981 7V8.07711C22.981 8.62939 22.5332 9.07711 21.981 9.07711C21.4681 9.07711 21.0455 8.69107 20.9877 8.19373L20.981 8.07711V7C20.981 5.40232 19.732 4.09634 18.1572 4.00509L17.981 4H17.0056C16.4533 4 16.0056 3.55228 16.0056 3C16.0056 2.48716 16.3917 2.06449 16.889 2.00673L17.0056 2H17.981ZM21.981 15.0033C22.4938 15.0033 22.9165 15.3893 22.9742 15.8866L22.981 16.0033V17C22.981 19.6888 20.8587 21.8818 18.1978 21.9954L17.981 22H17.0125C16.4602 22 16.0125 21.5523 16.0125 21C16.0125 20.4872 16.3986 20.0645 16.8959 20.0067L17.0125 20H17.981C19.5786 20 20.8846 18.7511 20.9759 17.1763L20.981 17V16.0033C20.981 15.451 21.4287 15.0033 21.981 15.0033ZM4.97423 15.9204C4.91646 15.4231 4.49379 15.037 3.98096 15.037C3.42867 15.037 2.98096 15.4848 2.98096 16.037V17L2.98558 17.2169C3.09914 19.8777 5.2922 22 7.98096 22H8.99299L9.10961 21.9933C9.60695 21.9355 9.99299 21.5128 9.99299 21C9.99299 20.4477 9.54527 20 8.99299 20H7.98096L7.80468 19.9949C6.22988 19.9037 4.98096 18.5977 4.98096 17V16.037L4.97423 15.9204ZM9.00752 2C9.55981 2 10.0075 2.44772 10.0075 3C10.0075 3.51284 9.62148 3.93551 9.12414 3.99327L9.00752 4H7.98096C6.38328 4 5.0773 5.24892 4.98605 6.82373L4.98096 7V8.06647C4.98096 8.61875 4.53324 9.06647 3.98096 9.06647C3.46812 9.06647 3.04545 8.68043 2.98768 8.18309L2.98096 8.06647V7C2.98096 4.31125 5.10326 2.11818 7.76407 2.00462L7.98096 2H9.00752ZM18.981 12.5C18.981 11.9477 18.5332 11.5 17.981 11.5H7.98096L7.86434 11.5067C7.367 11.5645 6.98096 11.9872 6.98096 12.5C6.98096 13.0523 7.42867 13.5 7.98096 13.5H17.981L18.0976 13.4933C18.5949 13.4355 18.981 13.0128 18.981 12.5Z" fill="#6E798D"/>
</svg>
