<?xml version="1.0" encoding="utf-8"?>
<!-- Generator: Adobe Illustrator 23.0.6, SVG Export Plug-In . SVG Version: 6.00 Build 0)  -->
<svg version="1.1" id="Layer_1" xmlns="http://www.w3.org/2000/svg" xmlns:xlink="http://www.w3.org/1999/xlink" x="0px" y="0px"
	 viewBox="0 0 448 184" style="enable-background:new 0 0 448 184;" xml:space="preserve">
<style type="text/css">
	.st0{fill:#B2B2B2;}
	.st1{fill:#0040FF;}
</style>
<title>Asset 1</title>
<g>
	<g>
		<path class="st0" d="M226.6,151.7c-0.4,0.8-0.8,1.6-1.2,2.4c-0.4,0.8-0.7,1.5-1,2c-0.6,1.1-1,2-1.3,2.7c-0.3,0.6-0.4,1.2-0.4,1.8
			c0,1.1,0.4,2.1,1.3,2.9c0.8,0.8,1.9,1.1,3,1.1c1.2,0,2.2-0.4,3-1.1c0.8-0.8,1.2-1.7,1.2-2.9c0-0.6-0.1-1.2-0.4-1.7
			c-0.3-0.5-0.7-1-1.2-1.3l2.3-5.9H226.6z"/>
		<path class="st0" d="M341.1,140.8c-1.4-0.7-2.9-1.4-4.3-2.1c-1.2-0.6-2.5-1.2-3.9-1.9c-1.4-0.7-2.7-1.3-3.9-1.9
			c-2.2-1-4.5-1.5-7-1.5c-3.4,0-6.3,0.8-8.7,2.5c-2.4,1.6-4.4,3.9-6.1,6.7l-0.9,1.4l6.3,3.3l0.8-1.1c2.6-3.4,5.5-5.1,8.6-5.1
			c1.3,0,2.5,0.3,3.5,0.8l9.4,4.4l-5,6.3c-1,1.2-2,2.2-3.3,2.9c-1.2,0.7-2.5,1-3.9,1h-19.5h0h-1.7c-1.4,0-2.6-0.5-3.6-1.4
			c-1-0.9-1.5-2-1.5-3.2v-13.4h-7.8v9.6c0,1.2-0.2,2.3-0.7,3.3c-0.4,1-1.1,1.9-1.8,2.7c-0.8,0.8-1.7,1.4-2.7,1.8
			c-1.1,0.4-2.2,0.6-3.4,0.6l-24.5,0.1c-1.2,0-2.3-0.2-3.4-0.7c-1.1-0.4-2-1.1-2.7-1.8c-0.8-0.8-1.4-1.7-1.8-2.7
			c-0.4-1.1-0.7-2.2-0.7-3.3v-9.5h-7.8v9.6c0,2.3,0.4,4.4,1.3,6.4c0.8,2,2,3.7,3.5,5.2c1.5,1.5,3.2,2.6,5.2,3.5s4.1,1.3,6.4,1.3
			h24.5c2.2,0,4.3-0.4,6.3-1.3c2-0.8,3.8-2.1,5.3-3.6c1.2,1.5,2.7,2.7,4.4,3.6s3.5,1.3,5.5,1.3h1.7h0h19.6c5.8,0,10.2-2.3,13.5-6.9
			l6-8.5c0.6,0.2,1.3,0.2,2.1,0.2c0.9,0,1.8,0,2.9-0.1c1-0.1,2-0.2,2.9-0.3v-7.6h-5.5C343.2,141.5,342,141.3,341.1,140.8z"/>
		<rect x="318.8" y="123" class="st0" width="7.3" height="7.4"/>
		<polygon class="st0" points="440.6,176.6 433.1,176.6 433.1,184 440.6,184 448,184 448,176.6 448,169.1 440.6,169.1 		"/>
		<polygon class="st0" points="266,138.6 269.8,138.6 277.2,138.6 277.2,131.2 269.8,131.2 266,131.2 262.3,131.2 258.6,131.2 
			258.6,138.6 262.3,138.6 		"/>
		<rect x="357.4" y="117.6" class="st0" width="7.9" height="47"/>
		<path class="st0" d="M401.6,156.8c0.7-1.5,1-3.2,1-4.9c0-2.2-0.5-4.2-1.4-6.1c-0.9-1.8-2.2-3.3-3.9-4.5c-0.3-0.2-0.8-0.6-1.5-1.1
			c-0.8-0.5-1.7-1.1-2.7-1.9c-1-0.7-2.1-1.5-3.3-2.2c-1.2-0.8-2.2-1.5-3.2-2.1c-1-0.7-1.8-1.2-2.6-1.7c-0.7-0.5-1.2-0.8-1.3-0.9
			l-4.1,6.4l14.1,9.7c0.7,0.4,1.2,1,1.6,1.8c0.4,0.8,0.6,1.6,0.6,2.6c0,1.3-0.5,2.5-1.5,3.4c-1,0.9-2.2,1.4-3.6,1.4h-17.3v7.9h17.3
			c1.7,0,3.4-0.3,4.9-1c1.5-0.7,2.9-1.6,4.1-2.8C400,159.6,400.9,158.3,401.6,156.8z"/>
		<path class="st0" d="M440.1,138.8v12.6c0,0.7-0.1,1.3-0.4,2c-0.3,0.6-0.6,1.2-1.1,1.7c-0.5,0.5-1,0.9-1.6,1.2
			c-0.6,0.3-1.3,0.4-1.9,0.4h-6.1h-2.3H425c-1.5,0-2.7-0.5-3.7-1.5c-1-1-1.5-2.1-1.5-3.5v-4h-7.8v3.9v13c0,0.1,0,0.3,0,0.5
			c0,0.2,0,0.4,0,0.6c-0.1,0.2-0.1,0.4-0.2,0.7c-0.2,0.7-0.5,1.6-0.9,2.7c-0.4,1.1-1.3,2.1-2.5,3.1c-1.1,0.9-2.4,1.6-3.9,2.2
			c-1.6,0.6-3.1,1.1-4.6,1.7c-0.3,0.1-0.6,0.2-1,0.3c-0.3,0.1-0.6,0.2-0.9,0.3l-1.5,0.6l2.1,6.8l1.5-0.5c0.3-0.1,0.5-0.2,0.8-0.2
			c0.3-0.1,0.6-0.1,0.8-0.2c0.9-0.3,1.9-0.6,2.9-0.9c1.1-0.3,2.1-0.7,3.1-1.1c1-0.4,2-0.9,3-1.4c1-0.5,1.9-1.1,2.7-1.8
			c3.9-3.3,5.9-7.7,6.2-13.2v-1.1c0.1,0,0.1,0.1,0.2,0.1c1.6,0.7,3.3,1,5.1,1h1.6h2.3h6.1c1.7,0,3.4-0.4,5-1.1
			c1.6-0.7,3-1.7,4.2-2.9c1.2-1.2,2.1-2.6,2.8-4.1c0.7-1.6,1-3.2,1-4.9v-12.8H440.1z"/>
		<rect x="190.6" y="169.1" class="st0" width="7.4" height="7.4"/>
		<polygon class="st0" points="63.6,132.5 63.6,125.1 63.6,117.6 56.1,117.6 56.1,125.1 48.7,125.1 48.7,132.5 56.1,132.5 		"/>
		<path class="st0" d="M69.9,156.7h-3.6c-1.5,0-2.7-0.5-3.8-1.5c-1-1-1.6-2.3-1.7-3.8v-11.3H53v11.2c0,1.5-0.5,2.7-1.6,3.8
			c-1.1,1.1-2.3,1.6-3.9,1.6s-2.8-0.5-3.8-1.5c-1-1-1.5-2.3-1.5-3.8v-11.2h-8v17.7c0,1.8-0.4,3.5-1.1,5.1c-0.7,1.6-1.7,3-2.9,4.3
			c-1.2,1.2-2.6,2.2-4.2,2.9c-1.6,0.7-3.3,1.1-5.1,1.1c-1.8,0-3.5-0.4-5.1-1.1c-1.6-0.7-3-1.7-4.2-2.9c-1.2-1.2-2.2-2.6-2.9-4.2
			c-0.7-1.6-1-3.3-1-5.2v-12.5H0v12.5c0,2.9,0.6,5.6,1.7,8.2c1.1,2.6,2.6,4.8,4.6,6.7c1.9,1.9,4.2,3.4,6.7,4.6
			c2.6,1.1,5.3,1.7,8.2,1.7c2.4,0,4.7-0.4,6.9-1.2c2.2-0.8,4.2-1.9,6-3.3c1.8-1.4,3.4-3.1,4.7-5c1.3-1.9,2.2-4,2.8-6.3
			c1.8,1,3.9,1.5,6,1.5c1.8,0,3.5-0.3,5.2-1c1.7-0.7,3.1-1.6,4.4-2.9c1.1,1.2,2.5,2.2,4.2,2.9c1.7,0.7,3.3,1,5,1H78v-26.7h-8.1
			V156.7z"/>
		<path class="st0" d="M165.3,140.5c-1.3-1.3-2.8-2.3-4.5-3c-1.7-0.7-3.5-1.1-5.4-1.1l-24,0.2c-2,0-3.9-0.9-5.8-2.6l-1-1l-4.8,4.6
			l0.7,1.1c1.4,2,3,3.4,4.8,4.3c-1.5,2.5-2.2,5-2.2,7.5c0,2.2,0.5,4.3,1.5,6.3h-7.2h-0.1h-3.7v-6.3c0-2-0.4-3.9-1.1-5.6
			c-0.7-1.7-1.7-3.2-3-4.6c-1.3-1.3-2.8-2.3-4.5-3.1c-1.7-0.7-3.6-1.1-5.6-1.1c-2,0-3.8,0.4-5.5,1.1c-1.7,0.8-3.2,1.8-4.5,3.1
			c-1.3,1.3-2.3,2.9-3,4.6c-0.7,1.7-1.1,3.6-1.1,5.5c0,2,0.4,3.8,1.1,5.5s1.7,3.2,3,4.5c1.3,1.3,2.8,2.3,4.5,3
			c1.7,0.7,3.5,1.1,5.5,1.1h6.3h0.1c0,0.1,0,0.3,0,0.5c0,0.2,0,0.4,0,0.6c-0.1,0.2-0.1,0.4-0.2,0.7c-0.2,0.7-0.5,1.6-0.9,2.7
			c-0.4,1.1-1.3,2.1-2.5,3.1c-1.1,0.9-2.4,1.6-3.9,2.2c-1.6,0.6-3.1,1.1-4.6,1.7c-0.3,0.1-0.6,0.2-1,0.3c-0.3,0.1-0.6,0.2-0.9,0.3
			l-1.5,0.6l2.1,6.8l1.5-0.5c0.3-0.1,0.5-0.2,0.8-0.2c0.3-0.1,0.6-0.1,0.8-0.2c0.9-0.3,1.9-0.6,2.9-0.9s2.1-0.7,3.1-1.1
			c1-0.4,2-0.9,3-1.4c1-0.5,1.9-1.1,2.7-1.8c3.9-3.3,5.9-7.7,6.2-13.2h3.7h0.1h38.1c2,0,3.8-0.4,5.5-1.1c1.7-0.7,3.2-1.8,4.5-3
			c1.3-1.3,2.3-2.8,3-4.5s1.1-3.5,1.1-5.5c0-1.9-0.4-3.7-1.1-5.4C167.6,143.3,166.6,141.8,165.3,140.5z M99.4,156.7
			c-1.7,0-3.2-0.6-4.5-1.8c-1.2-1.2-1.9-2.7-1.9-4.4c0-0.9,0.2-1.7,0.5-2.5c0.3-0.8,0.8-1.4,1.4-2c0.6-0.6,1.3-1,2-1.4
			c0.8-0.3,1.6-0.5,2.4-0.5c1.7,0,3.2,0.6,4.5,1.9s1.9,2.8,1.9,4.5v6.3H99.4z M141.7,154.9c-1.2,1.2-2.8,1.8-4.6,1.8
			c-1.7,0-3.1-0.6-4.4-1.8c-1.2-1.2-1.8-2.7-1.8-4.4c0-1.6,0.6-3.1,1.8-4.3c1.2-1.2,2.7-1.8,4.4-1.8c1.7,0,3.2,0.6,4.5,1.8
			c1.3,1.2,1.9,2.6,1.9,4.3C143.5,152.2,142.9,153.7,141.7,154.9z M159.8,154.9c-1.2,1.2-2.7,1.8-4.4,1.8h-5.5c1-1.9,1.5-4,1.5-6.3
			c0-2.2-0.5-4.2-1.6-6.2l5.5-0.2c1.7,0.1,3.2,0.7,4.4,1.9c1.2,1.2,1.8,2.7,1.8,4.4C161.6,152.2,161,153.7,159.8,154.9z"/>
		<path class="st0" d="M203.9,151.4c0,0.7-0.1,1.3-0.4,2c-0.3,0.6-0.6,1.2-1.1,1.7c-0.5,0.5-1,0.9-1.6,1.2c-0.6,0.3-1.3,0.4-1.9,0.4
			h-5.2c0,0,0,0,0,0c0,0,0,0,0,0h-3.9c-1.5,0-2.7-0.5-3.7-1.5c-1-1-1.5-2.1-1.5-3.5v-34.1h-7.8v34c0,1.8,0.3,3.5,1,5.1
			c0.7,1.6,1.6,3,2.8,4.1c1.2,1.2,2.5,2.1,4.1,2.8c1.6,0.7,3.3,1,5.1,1h3.9c0,0,0,0,0,0c0,0,0,0,0,0h5.2c1.7,0,3.4-0.4,5-1.1
			c1.6-0.7,3-1.7,4.2-2.9c1.2-1.2,2.1-2.6,2.8-4.1c0.7-1.6,1-3.2,1-4.9v-12.8h-7.9V151.4z"/>
	</g>
	<g>
		<path class="st1" d="M418.6,0h-29.4v14.7h29.4c8.1,0,14.7,6.6,14.7,14.7s-6.6,14.7-14.7,14.7h-29.4v14.7h29.4
			c16.2,0,29.4-13.2,29.4-29.4S434.8,0,418.6,0z"/>
		<path class="st1" d="M367.2,29.4c0,8.1-6.6,14.7-14.7,14.7h-29.4V29.4C323.1,13.2,310,0,293.8,0h-29.4v14.7h29.4
			c8.1,0,14.7,6.6,14.7,14.7v14.7h-58.8v14.7h14.7v7.3c0,8.1-6.6,14.7-14.7,14.7h-29.4h-22c-8.1,0-14.7-6.6-14.7-14.7v-22h-14.7v22
			c0,16.2,13.2,29.4,29.4,29.4h22h29.4c16.2,0,29.4-13.2,29.4-29.4v-7.3h44.1h29.4c16.2,0,29.4-13.2,29.4-29.4V0h-14.7V29.4z"/>
		<path class="st1" d="M146.9,29.4c0,8.1-6.6,14.7-14.7,14.7H88.1v14.7h14.7v7.3c0,8.1-6.6,14.7-14.7,14.7h-7.3H66.1H29.4
			c-8.1,0-14.7-6.6-14.7-14.7v-22H0v22c0,16.2,13.2,29.4,29.4,29.4h36.7h14.7h7.3c16.2,0,29.4-13.2,29.4-29.4v-7.3h14.7
			c16.2,0,29.4-13.2,29.4-29.4V0h-14.7V29.4z"/>
		<rect x="308.5" y="73.4" class="st1" width="14.7" height="14.7"/>
		<polygon class="st1" points="146.9,80.8 132.2,80.8 132.2,95.5 161.6,95.5 161.6,80.8 161.6,66.1 146.9,66.1 		"/>
		<rect x="352.5" y="73.4" class="st1" width="29.4" height="14.7"/>
	</g>
</g>
</svg>
