<?xml version="1.0" encoding="utf-8"?>
<!-- Generator: Adobe Illustrator 23.0.6, SVG Export Plug-In . SVG Version: 6.00 Build 0)  -->
<svg version="1.1" id="Layer_1" xmlns="http://www.w3.org/2000/svg" xmlns:xlink="http://www.w3.org/1999/xlink" x="0px" y="0px"
	 viewBox="0 0 192 280" style="enable-background:new 0 0 192 280;" xml:space="preserve">
<style type="text/css">
	.st0{fill:#0040FF;}
</style>
<title>Asset 2</title>
<g>
	<path class="st0" d="M29.5,280H14.7H0v-58.9v-58.9c0-16.3,6.6-31,17.3-41.7s25.4-17.3,41.7-17.3h14.7h14.7h52H192v14.7v14.7
		c0,16.3-6.6,31-17.3,41.7s-25.4,17.3-41.7,17.3h-22.8H88.4v14.7v14.7c0,16.3-6.6,31-17.3,41.7C60.5,273.4,45.8,280,29.5,280z"/>
	<path class="st0" d="M0,29.5V14.7V0h66.3h66.7c16.3,0,31,6.6,41.7,17.3S192,42.7,192,58.9v14.7v14.7h-66.3H58.9
		c-16.3,0-31-6.6-41.7-17.3S0,45.8,0,29.5z"/>
</g>
</svg>
