<svg width="25" height="24" viewBox="0 0 25 24" fill="none" xmlns="http://www.w3.org/2000/svg">
  <path fill-rule="evenodd" clip-rule="evenodd" d="M4.34947 7.67065L11.2952 2.93867C12.3118 2.24601 13.6484 2.24427 14.6669 2.93426L21.6567 7.66959C22.4806 8.22774 22.9741 9.15813 22.9741 10.1533V19.0001C22.9741 20.6569 21.6309 22.0001 19.9741 22.0001H16.0175C15.4652 22.0001 15.0175 21.5524 15.0175 21.0001L15.0171 16.0001H11.1051L11.106 21.0001C11.106 21.5129 10.72 21.9356 10.2227 21.9934L10.106 22.0001H6.03857C4.38172 22.0001 3.03857 20.6569 3.03857 19.0001V10.1499C3.03857 9.15756 3.52933 8.22939 4.34947 7.67065ZM20.5349 9.32539L13.5451 4.59007C13.2056 4.36007 12.7601 4.36065 12.4212 4.59154L5.47554 9.32351C5.20216 9.50976 5.03857 9.81915 5.03857 10.1499V19.0001C5.03857 19.5524 5.48629 20.0001 6.03857 20.0001H9.1051L9.10604 15.0001C9.10604 14.4872 9.49208 14.0646 9.98942 14.0068L10.106 14.0001H16.0175C16.5697 14.0001 17.0175 14.4478 17.0175 15.0001L17.0171 20.0001H19.9741C20.4869 20.0001 20.9096 19.614 20.9673 19.1167L20.9741 19.0001V10.1533C20.9741 9.82157 20.8096 9.51144 20.5349 9.32539Z" fill="#6E798D"/>
</svg>
