<?xml version="1.0" encoding="utf-8"?>
<!-- Generator: Adobe Illustrator 27.7.0, SVG Export Plug-In . SVG Version: 6.00 Build 0)  -->
<svg version="1.1" id="Layer_1" xmlns="http://www.w3.org/2000/svg" xmlns:xlink="http://www.w3.org/1999/xlink" x="0px" y="0px"
	 viewBox="0 0 3000 3000" style="enable-background:new 0 0 3000 3000;" xml:space="preserve">
<style type="text/css">
	.st0{display:none;}
	.st1{display:inline;}
	
		.st2{clip-path:url(#SVGID_00000029739119640664889160000010879049056083745161_);fill:url(#SVGID_00000078038336325530996490000018169205257193467042_);}
	
		.st3{clip-path:url(#SVGID_00000048458794052754289070000012290267542291251608_);fill:url(#SVGID_00000170236157243436088830000018101638958220170629_);}
	
		.st4{clip-path:url(#SVGID_00000173844166322558543230000018266708798124703670_);fill:url(#SVGID_00000017499895510582249080000011634967590119558278_);}
	.st5{filter:url(#Adobe_OpacityMaskFilter);}
	
		.st6{clip-path:url(#SVGID_00000050643354309817435350000014486461795735417012_);fill:url(#SVGID_00000090976407335741612650000008558343051528907168_);}
	
		.st7{clip-path:url(#SVGID_00000050643354309817435350000014486461795735417012_);mask:url(#SVGID_00000086658633991228050990000017364095646023770509_);fill:url(#SVGID_00000094605140835904524100000002692683905603786928_);}
	.st8{filter:url(#Adobe_OpacityMaskFilter_00000124883153434397284440000016142347636996817811_);}
	
		.st9{clip-path:url(#SVGID_00000081636123036741054070000016586029865845700781_);fill:url(#SVGID_00000164495269669972234800000014617966258231082388_);}
	
		.st10{clip-path:url(#SVGID_00000081636123036741054070000016586029865845700781_);mask:url(#SVGID_00000129180863867936484730000010898270704571708095_);fill:url(#SVGID_00000140728731314282843120000000288234064819230122_);}
	.st11{filter:url(#Adobe_OpacityMaskFilter_00000077300166215952717570000003250993488920585132_);}
	
		.st12{clip-path:url(#SVGID_00000075149369926552902710000012215262903427383179_);fill:url(#SVGID_00000176764412550516905800000016597645943211823238_);}
	
		.st13{clip-path:url(#SVGID_00000075149369926552902710000012215262903427383179_);mask:url(#SVGID_00000121243621758112747090000017547957581977374871_);fill:url(#SVGID_00000179630491477624566030000005599315330473158017_);}
	.st14{filter:url(#Adobe_OpacityMaskFilter_00000124865978834364395580000012439304797515257474_);}
	
		.st15{clip-path:url(#SVGID_00000145750435540965145380000002314870632488011181_);fill:url(#SVGID_00000010301040242991743420000006326522438960775044_);}
	
		.st16{clip-path:url(#SVGID_00000145750435540965145380000002314870632488011181_);mask:url(#SVGID_00000055680226212441179740000012775257840283595693_);fill:url(#SVGID_00000012460295157563620230000009078407948841984135_);}
	.st17{filter:url(#Adobe_OpacityMaskFilter_00000085933912134259272380000002337665445140796841_);}
	
		.st18{clip-path:url(#SVGID_00000011031361463494825950000007039196067603856775_);fill:url(#SVGID_00000081637449129438977680000009464745268983174820_);}
	
		.st19{clip-path:url(#SVGID_00000011031361463494825950000007039196067603856775_);mask:url(#SVGID_00000161632087330324099180000016732515364109956748_);fill:url(#SVGID_00000067933585341473910700000000877783388178881471_);}
	.st20{display:inline;fill-rule:evenodd;clip-rule:evenodd;fill:#283678;}
	
		.st21{clip-path:url(#SVGID_00000180360312173345019440000007752037315681139620_);fill:url(#SVGID_00000099621672867079178300000001387035306039273378_);}
	
		.st22{clip-path:url(#SVGID_00000101079491470640034080000010486533237056433796_);fill:url(#SVGID_00000147900287990280744890000000574869008301806007_);}
	
		.st23{clip-path:url(#SVGID_00000120555470949828868140000002932271782378448792_);fill:url(#SVGID_00000142150283319017698250000016021639081612219305_);}
	.st24{filter:url(#Adobe_OpacityMaskFilter_00000057122383399980290220000003366485263746997942_);}
	
		.st25{clip-path:url(#SVGID_00000046319210521793574440000010677423846385993105_);fill:url(#SVGID_00000171000755645482656360000006344772943548949680_);}
	
		.st26{clip-path:url(#SVGID_00000046319210521793574440000010677423846385993105_);mask:url(#SVGID_00000056396504228748644290000010959498092977270968_);fill:url(#SVGID_00000060007957021701456250000010159878223010926260_);}
	.st27{filter:url(#Adobe_OpacityMaskFilter_00000162310561586031112450000015759143793467234475_);}
	
		.st28{clip-path:url(#SVGID_00000095297922603458894400000007415749350873940397_);fill:url(#SVGID_00000086681246306552571250000015878041555951648924_);}
	
		.st29{clip-path:url(#SVGID_00000095297922603458894400000007415749350873940397_);mask:url(#SVGID_00000095320873653269273160000000102628131531860649_);fill:url(#SVGID_00000145040238431523845500000002560475563814406315_);}
	.st30{filter:url(#Adobe_OpacityMaskFilter_00000085935598264607787140000003191123527099150978_);}
	
		.st31{clip-path:url(#SVGID_00000182501324845906130960000008917411405479386498_);fill:url(#SVGID_00000082339618647580822300000012685562343993987756_);}
	
		.st32{clip-path:url(#SVGID_00000182501324845906130960000008917411405479386498_);mask:url(#SVGID_00000078035315317951273980000000778673821003714444_);fill:url(#SVGID_00000113323424041788531920000001071587492362105765_);}
	.st33{filter:url(#Adobe_OpacityMaskFilter_00000011746106896180064440000002604021118033939362_);}
	
		.st34{clip-path:url(#SVGID_00000178167449448751840950000014925850422820026025_);fill:url(#SVGID_00000043425579462535601020000011416891058621451167_);}
	
		.st35{clip-path:url(#SVGID_00000178167449448751840950000014925850422820026025_);mask:url(#SVGID_00000144301427353671068460000009564955599508434051_);fill:url(#SVGID_00000158737169390537647050000001382586207567608983_);}
	.st36{filter:url(#Adobe_OpacityMaskFilter_00000050625670046902809770000016816507967666146233_);}
	
		.st37{clip-path:url(#SVGID_00000175296235156270214440000015626250345265305257_);fill:url(#SVGID_00000039125954773306977900000009064009247046360204_);}
	
		.st38{clip-path:url(#SVGID_00000175296235156270214440000015626250345265305257_);mask:url(#SVGID_00000155833103501097673300000002254776689356162949_);fill:url(#SVGID_00000019661092839795938360000000024884246266401175_);}
	.st39{fill-rule:evenodd;clip-rule:evenodd;fill:#283678;}
</style>
<g class="st0">
	<g class="st1">
		<defs>
			<path id="SVGID_1_" d="M363.7,842.9L363.7,842.9l0,283.4h283.6v283.6H363.6v283.4v0H1214h0v-283.4H930.6v-223.6
				c0-49.1-18.3-78.6-40.4-100.4L682.9,878.7c-20.8-20.9-53-35.8-90-35.8H363.7z"/>
		</defs>
		<clipPath id="SVGID_00000056403993072380046680000001731458497166074256_">
			<use xlink:href="#SVGID_1_"  style="overflow:visible;"/>
		</clipPath>
		
			<linearGradient id="SVGID_00000042731641417841654900000010813752917541329561_" gradientUnits="userSpaceOnUse" x1="6932.7734" y1="1830.0497" x2="6943.6611" y2="1830.0497" gradientTransform="matrix(1.1517 80.0417 80.0417 -1.1517 -153679.5625 -551799.0625)">
			<stop  offset="0" style="stop-color:#2BACE2"/>
			<stop  offset="0.2268" style="stop-color:#2E85BA"/>
			<stop  offset="0.4949" style="stop-color:#2B639B"/>
			<stop  offset="0.7226" style="stop-color:#294B87"/>
			<stop  offset="0.898" style="stop-color:#283C7D"/>
			<stop  offset="1" style="stop-color:#283679"/>
		</linearGradient>
		
			<polygon style="clip-path:url(#SVGID_00000056403993072380046680000001731458497166074256_);fill:url(#SVGID_00000042731641417841654900000010813752917541329561_);" points="
			1213.9,830.7 1226.3,1693.1 363.8,1705.5 351.4,843.1 		"/>
	</g>
	<g class="st1">
		<defs>
			<path id="SVGID_00000097465109417512849940000007716951392329970591_" d="M930.7,842.9L930.7,842.9l0,229
				c0,31.5,13.3,68.9,36.6,91l207,207c26.4,26.3,53.8,40,99.8,40h223.6v283.4H1781h0v-229c0-40.4-18-72.4-39.3-93.7l-244.2-244.2
				h-283.3V842.9H930.7z"/>
		</defs>
		<clipPath id="SVGID_00000021111673556510389840000015086538227082815925_">
			<use xlink:href="#SVGID_00000097465109417512849940000007716951392329970591_"  style="overflow:visible;"/>
		</clipPath>
		
			<linearGradient id="SVGID_00000009576421784497163240000011090741551228011193_" gradientUnits="userSpaceOnUse" x1="6932.7734" y1="1836.4766" x2="6943.6611" y2="1836.4766" gradientTransform="matrix(1.1517 80.0417 80.0417 -1.1517 -153627.125 -551799.8125)">
			<stop  offset="0" style="stop-color:#2BACE2"/>
			<stop  offset="0.2268" style="stop-color:#2E85BA"/>
			<stop  offset="0.4949" style="stop-color:#2B639B"/>
			<stop  offset="0.7226" style="stop-color:#294B87"/>
			<stop  offset="0.898" style="stop-color:#283C7D"/>
			<stop  offset="1" style="stop-color:#283679"/>
		</linearGradient>
		
			<polygon style="clip-path:url(#SVGID_00000021111673556510389840000015086538227082815925_);fill:url(#SVGID_00000009576421784497163240000011090741551228011193_);" points="
			1780.8,830.7 1793.3,1693.1 930.8,1705.5 918.4,843.1 		"/>
	</g>
	<g class="st1">
		<defs>
			<path id="SVGID_00000162311054607290100670000017483084838801893029_" d="M2064.4,842.9v283.4h283.4v283.6h-283.4v-283.3H1781
				V842.9h-283.4l-0.2,283.4l283.4,0.3l-0.2,227c0.2,32.2,11,66.9,34.3,90.2l210.6,210.6c29.6,29.6,63.2,37.6,89,38.9h516.9h0
				v-512.6c0-30.1-9.1-63.7-37.8-92.5l-206.1-205.8c-27.9-28.2-62.5-39.5-93.9-39.5H2064.4z"/>
		</defs>
		<clipPath id="SVGID_00000060710775030552000400000008239333873373573042_">
			<use xlink:href="#SVGID_00000162311054607290100670000017483084838801893029_"  style="overflow:visible;"/>
		</clipPath>
		
			<linearGradient id="SVGID_00000083064124412296205970000006383523758798633636_" gradientUnits="userSpaceOnUse" x1="6932.7734" y1="1844.5129" x2="6943.6611" y2="1844.5129" gradientTransform="matrix(1.1517 80.0417 80.0417 -1.1517 -153561.8906 -551800.75)">
			<stop  offset="0" style="stop-color:#2BACE2"/>
			<stop  offset="0.2268" style="stop-color:#2E85BA"/>
			<stop  offset="0.4949" style="stop-color:#2B639B"/>
			<stop  offset="0.7226" style="stop-color:#294B87"/>
			<stop  offset="0.898" style="stop-color:#283C7D"/>
			<stop  offset="1" style="stop-color:#283679"/>
		</linearGradient>
		
			<polygon style="clip-path:url(#SVGID_00000060710775030552000400000008239333873373573042_);fill:url(#SVGID_00000083064124412296205970000006383523758798633636_);" points="
			2631.2,826.6 2643.7,1693.1 1497.7,1709.6 1485.2,843.1 		"/>
	</g>
	<g class="st1">
		<defs>
			<path id="SVGID_00000084491917517546811510000010470137000867967902_" d="M647.2,1126.3v283.6h283.4v-226.5
				c0-19.7-6.2-30.4-13.8-39.2c-10.2-11.6-24.3-17.8-41.4-17.8H647.2z"/>
		</defs>
		<clipPath id="SVGID_00000079445867648008642030000010505466238721339826_">
			<use xlink:href="#SVGID_00000084491917517546811510000010470137000867967902_"  style="overflow:visible;"/>
		</clipPath>
		<defs>
			<filter id="Adobe_OpacityMaskFilter" filterUnits="userSpaceOnUse" x="647.2" y="1126.3" width="283.4" height="283.6">
				<feColorMatrix  type="matrix" values="1 0 0 0 0  0 1 0 0 0  0 0 1 0 0  0 0 0 1 0"/>
			</filter>
		</defs>
		
			<mask maskUnits="userSpaceOnUse" x="647.2" y="1126.3" width="283.4" height="283.6" id="SVGID_00000168075847763007095090000011130886531020230790_">
			<g class="st5">
				
					<linearGradient id="SVGID_00000066501788848897281010000010864801996662153913_" gradientUnits="userSpaceOnUse" x1="6934.9346" y1="2200.6077" x2="6945.8223" y2="2200.6077" gradientTransform="matrix(0 -26.0451 -26.0451 0 58104.043 182031.1719)">
					<stop  offset="0" style="stop-color:#000000"/>
					<stop  offset="1" style="stop-color:#FFFFFF"/>
				</linearGradient>
				
					<rect x="647.2" y="1126.3" style="clip-path:url(#SVGID_00000079445867648008642030000010505466238721339826_);fill:url(#SVGID_00000066501788848897281010000010864801996662153913_);" width="283.4" height="283.6"/>
			</g>
		</mask>
		
			<linearGradient id="SVGID_00000059277444147767632990000005572952199103164544_" gradientUnits="userSpaceOnUse" x1="6934.9351" y1="2200.6079" x2="6945.8223" y2="2200.6079" gradientTransform="matrix(0 -26.0451 -26.0451 0 58104.043 182031.1719)">
			<stop  offset="0" style="stop-color:#283679"/>
			<stop  offset="1" style="stop-color:#283679"/>
		</linearGradient>
		
			<rect x="647.2" y="1126.3" style="clip-path:url(#SVGID_00000079445867648008642030000010505466238721339826_);mask:url(#SVGID_00000168075847763007095090000011130886531020230790_);fill:url(#SVGID_00000059277444147767632990000005572952199103164544_);" width="283.4" height="283.6"/>
	</g>
	<g class="st1">
		<defs>
			<path id="SVGID_00000044140019673472271420000000102827287649901242_" d="M1214,1126.3v226.5c0,19.7,6.2,30.4,13.8,39
				c10.2,11.8,24.3,18,41.4,18h228.3v-283.6H1214z"/>
		</defs>
		<clipPath id="SVGID_00000136373858735606824240000016812410832955267971_">
			<use xlink:href="#SVGID_00000044140019673472271420000000102827287649901242_"  style="overflow:visible;"/>
		</clipPath>
		<defs>
			
				<filter id="Adobe_OpacityMaskFilter_00000108278189322838974420000012553570163883843210_" filterUnits="userSpaceOnUse" x="1214" y="1126.3" width="283.4" height="283.6">
				<feColorMatrix  type="matrix" values="1 0 0 0 0  0 1 0 0 0  0 0 1 0 0  0 0 0 1 0"/>
			</filter>
		</defs>
		
			<mask maskUnits="userSpaceOnUse" x="1214" y="1126.3" width="283.4" height="283.6" id="SVGID_00000127040286585680957560000006499948235592112558_">
			<g style="filter:url(#Adobe_OpacityMaskFilter_00000108278189322838974420000012553570163883843210_);">
				
					<linearGradient id="SVGID_00000088825543823167111170000002161828611090897317_" gradientUnits="userSpaceOnUse" x1="7192.8057" y1="1918.8842" x2="7203.6934" y2="1918.8842" gradientTransform="matrix(-26.0309 0 0 26.0309 188732.7031 -48682.1914)">
					<stop  offset="0" style="stop-color:#000000"/>
					<stop  offset="1" style="stop-color:#FFFFFF"/>
				</linearGradient>
				
					<rect x="1214" y="1126.3" style="clip-path:url(#SVGID_00000136373858735606824240000016812410832955267971_);fill:url(#SVGID_00000088825543823167111170000002161828611090897317_);" width="283.4" height="283.6"/>
			</g>
		</mask>
		
			<linearGradient id="SVGID_00000041261199447810622320000005380228076690382262_" gradientUnits="userSpaceOnUse" x1="7192.8057" y1="1918.8844" x2="7203.6934" y2="1918.8844" gradientTransform="matrix(-26.0309 0 0 26.0309 188732.7031 -48682.1914)">
			<stop  offset="0" style="stop-color:#283679"/>
			<stop  offset="1" style="stop-color:#283679"/>
		</linearGradient>
		
			<rect x="1214" y="1126.3" style="clip-path:url(#SVGID_00000136373858735606824240000016812410832955267971_);mask:url(#SVGID_00000127040286585680957560000006499948235592112558_);fill:url(#SVGID_00000041261199447810622320000005380228076690382262_);" width="283.4" height="283.6"/>
	</g>
	<g class="st1">
		<defs>
			<path id="SVGID_00000134246421289603144550000013751868437584488627_" d="M1497.6,1409.9v283.4H1781v-228.4
				c0-17.1-6-31.2-17.8-41.4c-8.8-7.6-19.4-13.7-39.2-13.7H1497.6z"/>
		</defs>
		<clipPath id="SVGID_00000172406237230588260660000005761481376649739686_">
			<use xlink:href="#SVGID_00000134246421289603144550000013751868437584488627_"  style="overflow:visible;"/>
		</clipPath>
		<defs>
			
				<filter id="Adobe_OpacityMaskFilter_00000081617185263704433260000012068344183675160714_" filterUnits="userSpaceOnUse" x="1497.6" y="1409.9" width="283.4" height="283.4">
				<feColorMatrix  type="matrix" values="1 0 0 0 0  0 1 0 0 0  0 0 1 0 0  0 0 0 1 0"/>
			</filter>
		</defs>
		
			<mask maskUnits="userSpaceOnUse" x="1497.6" y="1409.9" width="283.4" height="283.4" id="SVGID_00000048499618813655218560000011070226105294415787_">
			<g style="filter:url(#Adobe_OpacityMaskFilter_00000081617185263704433260000012068344183675160714_);">
				
					<linearGradient id="SVGID_00000178924238632207493320000014268854386877461161_" gradientUnits="userSpaceOnUse" x1="6925.0454" y1="2171.0923" x2="6935.9336" y2="2171.0923" gradientTransform="matrix(0 -26.0309 -26.0309 0 58154.7734 181958.3438)">
					<stop  offset="0" style="stop-color:#000000"/>
					<stop  offset="0.8883" style="stop-color:#FFFFFF"/>
					<stop  offset="1" style="stop-color:#FFFFFF"/>
				</linearGradient>
				
					<rect x="1497.6" y="1409.9" style="clip-path:url(#SVGID_00000172406237230588260660000005761481376649739686_);fill:url(#SVGID_00000178924238632207493320000014268854386877461161_);" width="283.4" height="283.4"/>
			</g>
		</mask>
		
			<linearGradient id="SVGID_00000165957333854201721770000005537982777930298809_" gradientUnits="userSpaceOnUse" x1="6925.0454" y1="2171.0928" x2="6935.9336" y2="2171.0928" gradientTransform="matrix(0 -26.0309 -26.0309 0 58154.7734 181958.3438)">
			<stop  offset="0" style="stop-color:#283679"/>
			<stop  offset="0.8883" style="stop-color:#283679"/>
			<stop  offset="1" style="stop-color:#283679"/>
		</linearGradient>
		
			<rect x="1497.6" y="1409.9" style="clip-path:url(#SVGID_00000172406237230588260660000005761481376649739686_);mask:url(#SVGID_00000048499618813655218560000011070226105294415787_);fill:url(#SVGID_00000165957333854201721770000005537982777930298809_);" width="283.4" height="283.4"/>
	</g>
	<g class="st1">
		<defs>
			<path id="SVGID_00000038384846249966415560000002319884188942910097_" d="M2347.8,1126.3v283.4h283.6v-228.3
				c0-17-6.2-31.1-17.8-41.4c-8.8-7.6-19.5-13.8-39.2-13.8H2347.8z"/>
		</defs>
		<clipPath id="SVGID_00000174576825239572021170000013319584079485823874_">
			<use xlink:href="#SVGID_00000038384846249966415560000002319884188942910097_"  style="overflow:visible;"/>
		</clipPath>
		<defs>
			
				<filter id="Adobe_OpacityMaskFilter_00000018198539251469562700000004014838355896776072_" filterUnits="userSpaceOnUse" x="2347.8" y="1126.3" width="283.6" height="283.4">
				<feColorMatrix  type="matrix" values="1 0 0 0 0  0 1 0 0 0  0 0 1 0 0  0 0 0 1 0"/>
			</filter>
		</defs>
		
			<mask maskUnits="userSpaceOnUse" x="2347.8" y="1126.3" width="283.6" height="283.4" id="SVGID_00000134961586229399262180000011636639754173979564_">
			<g style="filter:url(#Adobe_OpacityMaskFilter_00000018198539251469562700000004014838355896776072_);">
				
					<linearGradient id="SVGID_00000000190672591826142780000007428435108188251837_" gradientUnits="userSpaceOnUse" x1="6934.9385" y1="2141.4268" x2="6945.8262" y2="2141.4268" gradientTransform="matrix(0 -26.0309 -26.0309 0 58232.8945 181932.375)">
					<stop  offset="0" style="stop-color:#000000"/>
					<stop  offset="0.8883" style="stop-color:#FFFFFF"/>
					<stop  offset="1" style="stop-color:#FFFFFF"/>
				</linearGradient>
				
					<rect x="2347.9" y="1126.3" style="clip-path:url(#SVGID_00000174576825239572021170000013319584079485823874_);fill:url(#SVGID_00000000190672591826142780000007428435108188251837_);" width="283.6" height="283.4"/>
			</g>
		</mask>
		
			<linearGradient id="SVGID_00000096045016653057889920000005511285213516230052_" gradientUnits="userSpaceOnUse" x1="6934.9385" y1="2141.4272" x2="6945.8262" y2="2141.4272" gradientTransform="matrix(0 -26.0309 -26.0309 0 58232.9023 181932.4062)">
			<stop  offset="0" style="stop-color:#283679"/>
			<stop  offset="0.8883" style="stop-color:#283679"/>
			<stop  offset="1" style="stop-color:#283679"/>
		</linearGradient>
		
			<rect x="2347.8" y="1126.3" style="clip-path:url(#SVGID_00000174576825239572021170000013319584079485823874_);mask:url(#SVGID_00000134961586229399262180000011636639754173979564_);fill:url(#SVGID_00000096045016653057889920000005511285213516230052_);" width="283.6" height="283.4"/>
	</g>
	<g class="st1">
		<defs>
			<path id="SVGID_00000134961667624457008470000014187189150012276879_" d="M1780.7,1126.3v228.4c0,17.1,6.2,31.2,17.8,41.4
				c8.8,7.6,19.5,13.8,39.2,13.8h226.5v-283.6H1780.7z"/>
		</defs>
		<clipPath id="SVGID_00000050660361394566539310000001074629699696810398_">
			<use xlink:href="#SVGID_00000134961667624457008470000014187189150012276879_"  style="overflow:visible;"/>
		</clipPath>
		<defs>
			
				<filter id="Adobe_OpacityMaskFilter_00000149365105224139326990000016336446507751946884_" filterUnits="userSpaceOnUse" x="1780.7" y="1126.3" width="283.6" height="283.6">
				<feColorMatrix  type="matrix" values="1 0 0 0 0  0 1 0 0 0  0 0 1 0 0  0 0 0 1 0"/>
			</filter>
		</defs>
		
			<mask maskUnits="userSpaceOnUse" x="1780.7" y="1126.3" width="283.6" height="283.6" id="SVGID_00000160177456248639894830000013593566971773868464_">
			<g style="filter:url(#Adobe_OpacityMaskFilter_00000149365105224139326990000016336446507751946884_);">
				
					<linearGradient id="SVGID_00000124868116999527196700000004697237225211755151_" gradientUnits="userSpaceOnUse" x1="6930.7056" y1="1680.9181" x2="6941.5933" y2="1680.9181" gradientTransform="matrix(0 26.0451 26.0451 0 -41857.2383 -179384.8281)">
					<stop  offset="0" style="stop-color:#000000"/>
					<stop  offset="1" style="stop-color:#FFFFFF"/>
				</linearGradient>
				
					<rect x="1780.7" y="1126.3" style="clip-path:url(#SVGID_00000050660361394566539310000001074629699696810398_);fill:url(#SVGID_00000124868116999527196700000004697237225211755151_);" width="283.6" height="283.6"/>
			</g>
		</mask>
		
			<linearGradient id="SVGID_00000090974872576587108960000008028830965818264994_" gradientUnits="userSpaceOnUse" x1="6930.7061" y1="1680.9181" x2="6941.5933" y2="1680.9181" gradientTransform="matrix(0 26.0451 26.0451 0 -41857.2383 -179384.8281)">
			<stop  offset="0" style="stop-color:#283679"/>
			<stop  offset="1" style="stop-color:#283679"/>
		</linearGradient>
		
			<rect x="1780.7" y="1126.3" style="clip-path:url(#SVGID_00000050660361394566539310000001074629699696810398_);mask:url(#SVGID_00000160177456248639894830000013593566971773868464_);fill:url(#SVGID_00000090974872576587108960000008028830965818264994_);" width="283.6" height="283.6"/>
	</g>
	<path class="st20" d="M389.4,1951.4L288.5,2052c-7.3,7.4-16,11.6-24.9,11.9c-9.2,0.1-18.5-3.9-26-11.6l-101.3-100.9v205.7H82.5
		v-259.3h65c8.6,0,14.2,2.9,19,7.7L263,2002l96.7-96.7c4.3-4.4,9.3-7.4,16.5-7.4H443v259.3h-54.1L389.4,1951.4z M2086.5,2103.4h53.7
		v-152h-53.7v-53.7h44.5c6.2,0,11.5,2.2,15.7,6.4l40.6,40.6c4.3,4.4,6.6,9.6,6.6,15.7v142.8h53.7v53.7H2194h-53.8h-53.7V2103.4z
		 M543.2,2150.7l-40.8-40.8c-4.3-4.3-6.4-9.6-6.4-15.6v-133.7c0-6.2,2.1-11.4,6.6-15.7l40.6-40.6c4.3-4.3,9.6-6.4,15.6-6.4h186.3
		c6,0,11.3,2.2,15.6,6.4l40.8,40.6c4.3,4.4,6.4,9.6,6.4,15.7v133.7c0,6-2.2,11.3-6.4,15.6l-40.8,40.8c-4.3,4.3-9.6,6.4-15.6,6.4
		H558.9C552.8,2157.1,547.5,2154.9,543.2,2150.7 M1146.6,2027.3l20.3,20.5c4.3,4.3,6.4,9.6,6.4,15.7v30.6c0,6.2-2.1,11.5-6.4,15.8
		l-40.8,40.8c-4.3,4.3-9.6,6.4-15.7,6.4h-249v-259.3h249.2c6.2,0,11.3,2.2,15.7,6.4l40.7,40.6c4.3,4.4,6.4,9.6,6.4,15.7v30.8
		c0,6.1-2.1,11.3-6.4,15.7L1146.6,2027.3z M1226.7,1897.8h53.7v259.3h-53.7V1897.8z M1380.9,2150.7l-40.7-40.8
		c-4.3-4.3-6.4-9.6-6.4-15.6v-196.5h53.7v205.7h234.6v53.7h-225.4C1390.5,2157.1,1385.2,2154.9,1380.9,2150.7 M1729.1,2000.5h250.6
		v53.7h-250.6v49.2h250.6v53.7h-241.3c-6.2,0-11.5-2.2-15.7-6.6l-40.6-40.6c-4.3-4.3-6.4-9.6-6.4-15.6l-0.2-133.5
		c0-6.2,2.2-11.4,6.6-15.7l40.6-40.8c4.3-4.3,9.6-6.4,15.7-6.4h241.3v53.3l-250.6,0.4V2000.5z M2506.3,2054.2h-195.8
		c-6.2,0-11.3-2.1-15.7-6.4l-40.6-40.6c-4.3-4.4-6.4-9.6-6.4-15.7v-93.6h53.7v102.8h204.9v-102.8h53.4v102.8h-53.2l46.7,46.8
		c4.4,4.3,6.6,9.6,6.6,15.7v94h-53.4V2054.2z M2660.9,2150.7l-40.6-40.8c-4.3-4.3-6.6-9.6-6.6-15.6v-196.5h241
		c6,0,11.3,2.2,15.6,6.4l40.8,40.6c4.3,4.4,6.4,9.6,6.4,15.7v196.5h-240.9C2670.5,2157.1,2665.1,2154.9,2660.9,2150.7 M549.6,2103.4
		h204.7v-152H549.6V2103.4z M915,1951v49.5h204.6v-49.1L915,1951z M915,2103.4h204.6v-49.2H915V2103.4z M2863.8,2103.4l0.3-152.4
		c-65.3,0-131.7-1.3-196.6,0.4v152H2863.8z"/>
</g>
<g>
	<g>
		<defs>
			<path id="SVGID_00000118381051610587032480000012858862487909453231_" d="M366.2,777.9v283.4h283.6v283.6H366.2v283.4h850.4
				v-283.4H933.1v-223.6c0-49.1-18.3-78.6-40.4-100.4L685.4,813.7c-20.8-20.9-53-35.8-90-35.8H366.2z"/>
		</defs>
		<clipPath id="SVGID_00000183943402728046800950000004087970863743039661_">
			<use xlink:href="#SVGID_00000118381051610587032480000012858862487909453231_"  style="overflow:visible;"/>
		</clipPath>
		
			<linearGradient id="SVGID_00000101799936724456657200000014111013624825726375_" gradientUnits="userSpaceOnUse" x1="6931.79" y1="1834.6559" x2="6943.1836" y2="1834.6559" gradientTransform="matrix(1.1005 76.4853 76.4853 -1.1005 -147165.1406 -527221.8125)">
			<stop  offset="0" style="stop-color:#2BACE2"/>
			<stop  offset="0.2268" style="stop-color:#2E85BA"/>
			<stop  offset="0.4949" style="stop-color:#2B639B"/>
			<stop  offset="0.7226" style="stop-color:#294B87"/>
			<stop  offset="0.898" style="stop-color:#283C7D"/>
			<stop  offset="1" style="stop-color:#283679"/>
		</linearGradient>
		
			<polygon style="clip-path:url(#SVGID_00000183943402728046800950000004087970863743039661_);fill:url(#SVGID_00000101799936724456657200000014111013624825726375_);" points="
			1216.4,765.7 1228.8,1628.1 366.4,1640.5 354,778.1 		"/>
	</g>
	<g>
		<defs>
			<path id="SVGID_00000063606344730700836290000006609106453297118907_" d="M933.1,777.9v229c0,31.4,13.3,69,36.6,91l207,207
				c26.4,26.3,53.8,40,99.8,40h223.6v283.4h283.4v-229c0-40.5-18-72.4-39.4-93.7l-244.2-244.2h-283.2V777.9H933.1z"/>
		</defs>
		<clipPath id="SVGID_00000039123124541552793660000012893237459014822030_">
			<use xlink:href="#SVGID_00000063606344730700836290000006609106453297118907_"  style="overflow:visible;"/>
		</clipPath>
		
			<linearGradient id="SVGID_00000152254668967842257040000008121551441669550989_" gradientUnits="userSpaceOnUse" x1="6931.79" y1="1841.412" x2="6943.1836" y2="1841.412" gradientTransform="matrix(1.1005 76.4853 76.4853 -1.1005 -147115.0312 -527222.5)">
			<stop  offset="0" style="stop-color:#2BACE2"/>
			<stop  offset="0.2268" style="stop-color:#2E85BA"/>
			<stop  offset="0.4949" style="stop-color:#2B639B"/>
			<stop  offset="0.7226" style="stop-color:#294B87"/>
			<stop  offset="0.898" style="stop-color:#283C7D"/>
			<stop  offset="1" style="stop-color:#283679"/>
		</linearGradient>
		
			<polygon style="clip-path:url(#SVGID_00000039123124541552793660000012893237459014822030_);fill:url(#SVGID_00000152254668967842257040000008121551441669550989_);" points="
			1783.3,765.7 1795.8,1628.1 933.3,1640.5 920.9,778.1 		"/>
	</g>
	<g>
		<defs>
			<path id="SVGID_00000060005636998127099490000005787256631039435944_" d="M2066.9,777.9v283.4h283.4v283.6h-283.4v-283.2h-283.4
				V777.9h-283.4l-0.2,283.4l283.4,0.3l-0.1,227c0.1,32.2,11,66.9,34.2,90.2l210.6,210.6c29.6,29.6,63.2,37.6,88.9,38.9h516.9
				v-512.6c0-30.1-9.1-63.7-37.8-92.5L2390,817.4c-27.9-28.2-62.4-39.5-93.9-39.5H2066.9z"/>
		</defs>
		<clipPath id="SVGID_00000026146230237844502530000007451105448769262220_">
			<use xlink:href="#SVGID_00000060005636998127099490000005787256631039435944_"  style="overflow:visible;"/>
		</clipPath>
		
			<linearGradient id="SVGID_00000088105579636501496700000015771743795270328738_" gradientUnits="userSpaceOnUse" x1="6931.79" y1="1849.8595" x2="6943.1836" y2="1849.8595" gradientTransform="matrix(1.1005 76.4853 76.4853 -1.1005 -147052.7031 -527223.375)">
			<stop  offset="0" style="stop-color:#2BACE2"/>
			<stop  offset="0.2268" style="stop-color:#2E85BA"/>
			<stop  offset="0.4949" style="stop-color:#2B639B"/>
			<stop  offset="0.7226" style="stop-color:#294B87"/>
			<stop  offset="0.898" style="stop-color:#283C7D"/>
			<stop  offset="1" style="stop-color:#283679"/>
		</linearGradient>
		
			<polygon style="clip-path:url(#SVGID_00000026146230237844502530000007451105448769262220_);fill:url(#SVGID_00000088105579636501496700000015771743795270328738_);" points="
			2633.7,761.6 2646.1,1628.1 1500.2,1644.6 1487.7,778.1 		"/>
	</g>
	<g>
		<defs>
			<path id="SVGID_00000054245920263049060710000008170792852558394549_" d="M649.8,1061.3v283.6h283.4v-226.5
				c0-19.7-6.2-30.4-13.8-39.2c-10.2-11.6-24.3-17.8-41.4-17.8H649.8z"/>
		</defs>
		<clipPath id="SVGID_00000067949426386788531360000007408155933936354487_">
			<use xlink:href="#SVGID_00000054245920263049060710000008170792852558394549_"  style="overflow:visible;"/>
		</clipPath>
		<defs>
			
				<filter id="Adobe_OpacityMaskFilter_00000168077049289558647210000012420662596601399726_" filterUnits="userSpaceOnUse" x="649.8" y="1061.3" width="283.4" height="283.6">
				<feColorMatrix  type="matrix" values="1 0 0 0 0  0 1 0 0 0  0 0 1 0 0  0 0 0 1 0"/>
			</filter>
		</defs>
		
			<mask maskUnits="userSpaceOnUse" x="649.8" y="1061.3" width="283.4" height="283.6" id="SVGID_00000127007080985859104470000002410647917061327747_">
			<g style="filter:url(#Adobe_OpacityMaskFilter_00000168077049289558647210000012420662596601399726_);">
				
					<linearGradient id="SVGID_00000148653939842433824580000013150521384893205428_" gradientUnits="userSpaceOnUse" x1="6937.437" y1="2186.4885" x2="6948.8306" y2="2186.4885" gradientTransform="matrix(0 -24.8879 -24.8879 0 55208.5586 174003.1406)">
					<stop  offset="0" style="stop-color:#000000"/>
					<stop  offset="1" style="stop-color:#FFFFFF"/>
				</linearGradient>
				
					<rect x="649.7" y="1061.3" style="clip-path:url(#SVGID_00000067949426386788531360000007408155933936354487_);fill:url(#SVGID_00000148653939842433824580000013150521384893205428_);" width="283.4" height="283.6"/>
			</g>
		</mask>
		
			<linearGradient id="SVGID_00000026857333786905541530000011653794401500341388_" gradientUnits="userSpaceOnUse" x1="6937.4375" y1="2186.4883" x2="6948.8306" y2="2186.4883" gradientTransform="matrix(0 -24.8879 -24.8879 0 55208.5586 174003.1406)">
			<stop  offset="0" style="stop-color:#283679"/>
			<stop  offset="1" style="stop-color:#283679"/>
		</linearGradient>
		
			<rect x="649.8" y="1061.3" style="clip-path:url(#SVGID_00000067949426386788531360000007408155933936354487_);mask:url(#SVGID_00000127007080985859104470000002410647917061327747_);fill:url(#SVGID_00000026857333786905541530000011653794401500341388_);" width="283.4" height="283.6"/>
	</g>
	<g>
		<defs>
			<path id="SVGID_00000116954807087655860670000013783855857196640133_" d="M1216.5,1061.3v226.5c0,19.7,6.2,30.4,13.8,39.1
				c10.2,11.8,24.3,18,41.4,18h228.2v-283.6H1216.5z"/>
		</defs>
		<clipPath id="SVGID_00000036223609686278047320000017424829055994108036_">
			<use xlink:href="#SVGID_00000116954807087655860670000013783855857196640133_"  style="overflow:visible;"/>
		</clipPath>
		<defs>
			
				<filter id="Adobe_OpacityMaskFilter_00000036958406484651788910000006706753511206427522_" filterUnits="userSpaceOnUse" x="1216.5" y="1061.3" width="283.4" height="283.6">
				<feColorMatrix  type="matrix" values="1 0 0 0 0  0 1 0 0 0  0 0 1 0 0  0 0 0 1 0"/>
			</filter>
		</defs>
		
			<mask maskUnits="userSpaceOnUse" x="1216.5" y="1061.3" width="283.4" height="283.6" id="SVGID_00000021817600488726228860000016875337797697987214_">
			<g style="filter:url(#Adobe_OpacityMaskFilter_00000036958406484651788910000006706753511206427522_);">
				
					<linearGradient id="SVGID_00000049195514243117503700000004010629889643948704_" gradientUnits="userSpaceOnUse" x1="7177.4141" y1="1916.1272" x2="7188.8071" y2="1916.1272" gradientTransform="matrix(-24.8743 0 0 24.8743 180033.1719 -46459.25)">
					<stop  offset="0" style="stop-color:#000000"/>
					<stop  offset="1" style="stop-color:#FFFFFF"/>
				</linearGradient>
				
					<rect x="1216.6" y="1061.3" style="clip-path:url(#SVGID_00000036223609686278047320000017424829055994108036_);fill:url(#SVGID_00000049195514243117503700000004010629889643948704_);" width="283.4" height="283.6"/>
			</g>
		</mask>
		
			<linearGradient id="SVGID_00000029763378065200868690000011598515470768939147_" gradientUnits="userSpaceOnUse" x1="7177.4146" y1="1916.1273" x2="7188.8076" y2="1916.1273" gradientTransform="matrix(-24.8743 0 0 24.8743 180033.1562 -46459.2461)">
			<stop  offset="0" style="stop-color:#283679"/>
			<stop  offset="1" style="stop-color:#283679"/>
		</linearGradient>
		
			<rect x="1216.5" y="1061.3" style="clip-path:url(#SVGID_00000036223609686278047320000017424829055994108036_);mask:url(#SVGID_00000021817600488726228860000016875337797697987214_);fill:url(#SVGID_00000029763378065200868690000011598515470768939147_);" width="283.4" height="283.6"/>
	</g>
	<g>
		<defs>
			<path id="SVGID_00000131330882167097224730000012364748534520894651_" d="M1500.1,1344.9v283.4h283.4v-228.4
				c0-17.1-6.1-31.1-17.8-41.4c-8.8-7.6-19.4-13.6-39.2-13.6H1500.1z"/>
		</defs>
		<clipPath id="SVGID_00000073685527605664280080000014392151978645282742_">
			<use xlink:href="#SVGID_00000131330882167097224730000012364748534520894651_"  style="overflow:visible;"/>
		</clipPath>
		<defs>
			
				<filter id="Adobe_OpacityMaskFilter_00000097458876344798855110000017166209111339644063_" filterUnits="userSpaceOnUse" x="1500.1" y="1344.9" width="283.4" height="283.4">
				<feColorMatrix  type="matrix" values="1 0 0 0 0  0 1 0 0 0  0 0 1 0 0  0 0 0 1 0"/>
			</filter>
		</defs>
		
			<mask maskUnits="userSpaceOnUse" x="1500.1" y="1344.9" width="283.4" height="283.4" id="SVGID_00000121968542786213517670000014166994918575410822_">
			<g style="filter:url(#Adobe_OpacityMaskFilter_00000097458876344798855110000017166209111339644063_);">
				
					<linearGradient id="SVGID_00000036949082016937833770000009197498872847011457_" gradientUnits="userSpaceOnUse" x1="6927.0439" y1="2155.4478" x2="6938.4375" y2="2155.4478" gradientTransform="matrix(0 -24.8743 -24.8743 0 55257.0352 173933.5312)">
					<stop  offset="0" style="stop-color:#000000"/>
					<stop  offset="0.8883" style="stop-color:#FFFFFF"/>
					<stop  offset="1" style="stop-color:#FFFFFF"/>
				</linearGradient>
				
					<rect x="1500.1" y="1344.9" style="clip-path:url(#SVGID_00000073685527605664280080000014392151978645282742_);fill:url(#SVGID_00000036949082016937833770000009197498872847011457_);" width="283.4" height="283.4"/>
			</g>
		</mask>
		
			<linearGradient id="SVGID_00000150805516257797470960000002583756320347685291_" gradientUnits="userSpaceOnUse" x1="6927.0435" y1="2155.4478" x2="6938.4375" y2="2155.4478" gradientTransform="matrix(0 -24.8743 -24.8743 0 55257.0391 173933.5469)">
			<stop  offset="0" style="stop-color:#283679"/>
			<stop  offset="0.8883" style="stop-color:#283679"/>
			<stop  offset="1" style="stop-color:#283679"/>
		</linearGradient>
		
			<rect x="1500.1" y="1344.9" style="clip-path:url(#SVGID_00000073685527605664280080000014392151978645282742_);mask:url(#SVGID_00000121968542786213517670000014166994918575410822_);fill:url(#SVGID_00000150805516257797470960000002583756320347685291_);" width="283.4" height="283.4"/>
	</g>
	<g>
		<defs>
			<path id="SVGID_00000176738344128988801700000003118064815779914930_" d="M2350.3,1061.3v283.4h283.6v-228.2
				c0-17-6.2-31.1-17.8-41.4c-8.8-7.6-19.5-13.8-39.2-13.8H2350.3z"/>
		</defs>
		<clipPath id="SVGID_00000136400857655264025830000003168350768775079615_">
			<use xlink:href="#SVGID_00000176738344128988801700000003118064815779914930_"  style="overflow:visible;"/>
		</clipPath>
		<defs>
			
				<filter id="Adobe_OpacityMaskFilter_00000021813769466833507820000001758413257593096889_" filterUnits="userSpaceOnUse" x="2350.3" y="1061.3" width="283.6" height="283.4">
				<feColorMatrix  type="matrix" values="1 0 0 0 0  0 1 0 0 0  0 0 1 0 0  0 0 0 1 0"/>
			</filter>
		</defs>
		
			<mask maskUnits="userSpaceOnUse" x="2350.3" y="1061.3" width="283.6" height="283.4" id="SVGID_00000096778658946609515130000008279689140288229508_">
			<g style="filter:url(#Adobe_OpacityMaskFilter_00000021813769466833507820000001758413257593096889_);">
				
					<linearGradient id="SVGID_00000085227872539150665960000009603111070461065646_" gradientUnits="userSpaceOnUse" x1="6937.4429" y1="2124.2644" x2="6948.8359" y2="2124.2644" gradientTransform="matrix(0 -24.8743 -24.8743 0 55331.6953 173908.75)">
					<stop  offset="0" style="stop-color:#000000"/>
					<stop  offset="0.8883" style="stop-color:#FFFFFF"/>
					<stop  offset="1" style="stop-color:#FFFFFF"/>
				</linearGradient>
				
					<rect x="2350.3" y="1061.3" style="clip-path:url(#SVGID_00000136400857655264025830000003168350768775079615_);fill:url(#SVGID_00000085227872539150665960000009603111070461065646_);" width="283.6" height="283.4"/>
			</g>
		</mask>
		
			<linearGradient id="SVGID_00000150069999020484888200000005593057080776199573_" gradientUnits="userSpaceOnUse" x1="6937.4429" y1="2124.2644" x2="6948.8359" y2="2124.2644" gradientTransform="matrix(0 -24.8743 -24.8743 0 55331.6953 173908.75)">
			<stop  offset="0" style="stop-color:#283679"/>
			<stop  offset="0.8883" style="stop-color:#283679"/>
			<stop  offset="1" style="stop-color:#283679"/>
		</linearGradient>
		
			<rect x="2350.3" y="1061.3" style="clip-path:url(#SVGID_00000136400857655264025830000003168350768775079615_);mask:url(#SVGID_00000096778658946609515130000008279689140288229508_);fill:url(#SVGID_00000150069999020484888200000005593057080776199573_);" width="283.6" height="283.4"/>
	</g>
	<g>
		<defs>
			<path id="SVGID_00000182521278709399202730000017319623725885798842_" d="M1783.2,1061.3v228.4c0,17,6.2,31.1,17.8,41.4
				c8.8,7.6,19.5,13.8,39.2,13.8h226.5v-283.6H1783.2z"/>
		</defs>
		<clipPath id="SVGID_00000101091211329815967630000008549224460740973696_">
			<use xlink:href="#SVGID_00000182521278709399202730000017319623725885798842_"  style="overflow:visible;"/>
		</clipPath>
		<defs>
			
				<filter id="Adobe_OpacityMaskFilter_00000078004776358076493960000012957500477259659414_" filterUnits="userSpaceOnUse" x="1783.2" y="1061.3" width="283.6" height="283.6">
				<feColorMatrix  type="matrix" values="1 0 0 0 0  0 1 0 0 0  0 0 1 0 0  0 0 0 1 0"/>
			</filter>
		</defs>
		
			<mask maskUnits="userSpaceOnUse" x="1783.2" y="1061.3" width="283.6" height="283.6" id="SVGID_00000019642716592403043170000012537689696655876746_">
			<g style="filter:url(#Adobe_OpacityMaskFilter_00000078004776358076493960000012957500477259659414_);">
				
					<linearGradient id="SVGID_00000032610652382277337540000015413879342456321681_" gradientUnits="userSpaceOnUse" x1="6927.6973" y1="1697.0596" x2="6939.0908" y2="1697.0596" gradientTransform="matrix(0 24.8879 24.8879 0 -40311.2734 -171354.5469)">
					<stop  offset="0" style="stop-color:#000000"/>
					<stop  offset="1" style="stop-color:#FFFFFF"/>
				</linearGradient>
				
					<rect x="1783.2" y="1061.3" style="clip-path:url(#SVGID_00000101091211329815967630000008549224460740973696_);fill:url(#SVGID_00000032610652382277337540000015413879342456321681_);" width="283.6" height="283.6"/>
			</g>
		</mask>
		
			<linearGradient id="SVGID_00000127033540482668235710000016842142183635143593_" gradientUnits="userSpaceOnUse" x1="6927.6978" y1="1697.0601" x2="6939.0908" y2="1697.0601" gradientTransform="matrix(0 24.8879 24.8879 0 -40311.2734 -171354.5469)">
			<stop  offset="0" style="stop-color:#283679"/>
			<stop  offset="1" style="stop-color:#283679"/>
		</linearGradient>
		
			<rect x="1783.2" y="1061.3" style="clip-path:url(#SVGID_00000101091211329815967630000008549224460740973696_);mask:url(#SVGID_00000019642716592403043170000012537689696655876746_);fill:url(#SVGID_00000127033540482668235710000016842142183635143593_);" width="283.6" height="283.6"/>
	</g>
	<path class="st39" d="M1566,2162.9h-133.6v59.2H1566V2162.9z M795.7,1830.6H662.8c-6.7,0-12.5,2.4-17.1,7.3l-44.8,44.8
		c-4.9,4.6-7.3,10.4-7.3,17.1v105.5c0,3.7,0.6,7,2.1,10.4h-42.1c-7,0-12.2,2.1-17.4,7l-44.8,44.8c-4.6,4.9-7,10.7-7,17.4v48.8h59.2
		v-59.2h252.2v-58.8h-143v-125.9h143V1830.6z M543.6,2015.7v-185.1h-59.2v184.8l7.3,0.3H543.6z M425.3,1830.6h-59.1v303.1h59.1
		V1830.6z M914,2074.5h-59.1v59.2H914V2074.5z M1262.6,2061.7v-231.1h59.2v121.1v122.6h185.1l0.3-184.2h16.5h42.4v243.3h-244.2v0.3
		v59.2h-220.2c-6.7,0-12.5-2.4-17.4-7.3l-44.5-44.8c-4.9-4.6-7.3-10.4-7.3-17.4v-152.5h59.2v162.8h171.1V2061.7z M1677.3,2126.3
		l-44.8-44.8c-4.9-4.6-7.3-10.4-7.3-17.1v-233.9h59.2v243.9h184.5l0.3-184.8h58.8v243.9h-233.6
		C1687.6,2133.7,1681.8,2131.2,1677.3,2126.3 M2417.9,2064.4c0,6.7-2.4,12.5-7,17.1l-44.8,44.8c-4.9,4.9-10.7,7.3-17.4,7.3h-86.6
		v59.2H2203v-59.2h-146.7c-6.7,0-12.5-2.4-17.4-7.3l-44.5-44.8c-4.9-4.6-7.3-10.4-7.3-17.1v-105.5c0-6.7,2.4-12.5,7.3-17.4
		l44.5-44.8c4.9-4.6,10.7-7,17.4-7h136.6c6.7,0,12.5,2.4,17.4,7l44.8,44.8c4.6,4.9,7,10.7,7,17.4v115.6h96.7v-115.6
		c0-6.7,2.4-12.5,7.3-17.4l44.8-44.8c4.6-4.6,10.4-7,17.1-7h136.6c6.7,0,12.5,2.4,17.4,7l44.8,44.8c4.9,4.9,7,10.7,7,17.4v105.5
		c0,6.7-2.1,12.5-7,17.1l-44.8,44.8c-4.9,4.9-10.7,7.3-17.4,7.3h-146.7v-59.2h157v-125.6h-157V2064.4z M2203.6,1948.9h-156.7v125.6
		h156.7V1948.9z M1927.9,2162.9h-59.1v59.2h59.1V2162.9z"/>
</g>
</svg>
