<?xml version="1.0" encoding="UTF-8" standalone="no"?>
<svg xmlns="http://www.w3.org/2000/svg" xmlns:xlink="http://www.w3.org/1999/xlink" viewBox="0 0 120.0 120.0">
  <path d="M60,116c30.928,0 56,-25.072 56,-56S90.928,4 60,4 4,29.072 4,60s25.072,56 56,56zM60,120C26.863,120 0,93.137 0,60S26.863,0 60,0s60,26.863 60,60 -26.863,60 -60,60z" fill="#294acc"/>
  <path d="M60,109c27.062,0 49,-21.938 49,-49S87.062,11 60,11 11,32.938 11,60s21.938,49 49,49zM60,112C31.281,112 8,88.719 8,60S31.281,8 60,8s52,23.281 52,52 -23.281,52 -52,52z" fill="#294acc"/>
  <path d="M60,102c23.196,0 42,-18.804 42,-42S83.196,18 60,18 18,36.804 18,60s18.804,42 42,42zM60,104c-24.3,0 -44,-19.7 -44,-44s19.7,-44 44,-44 44,19.7 44,44 -19.7,44 -44,44z" fill="#294acc"/>
  <path d="M60,95c19.33,0 35,-15.67 35,-35S79.33,25 60,25 25,40.67 25,60s15.67,35 35,35zM60,96c-19.882,0 -36,-16.118 -36,-36s16.118,-36 36,-36 36,16.118 36,36 -16.118,36 -36,36z" fill="#294acc"/>
  <path d="M8,14A6,6 0,1 0,8 2a6,6 0,0 0,0 12zM8,16A8,8 0,1 1,8 0a8,8 0,0 1,0 16z" fill="#294acc"/>
  <path d="M114,119a5,5 0,1 0,0 -10,5 5,0 0,0 0,10zM114,120a6,6 0,1 1,0 -12,6 6,0 0,1 0,12z" fill="#294acc"/>
</svg>
