<svg width="25" height="24" viewBox="0 0 25 24" fill="none" xmlns="http://www.w3.org/2000/svg">
  <path fill-rule="evenodd" clip-rule="evenodd" d="M14.981 5C14.981 3.89543 14.0855 3 12.981 3C11.8764 3 10.981 3.89543 10.981 5L10.981 5.3414C8.65059 6.16506 6.98096 8.38755 6.98096 11V16C6.42867 16 5.98096 16.4477 5.98096 17C5.98096 17.5523 6.42867 18 6.98096 18H10.981V19C10.981 20.1046 11.8764 21 12.981 21C14.0855 21 14.981 20.1046 14.981 19V18H18.981L19.0976 17.9933C19.5949 17.9355 19.981 17.5128 19.981 17C19.981 16.4477 19.5332 16 18.981 16V11C18.981 8.38799 17.3119 6.16581 14.9821 5.34182L14.981 5ZM8.98585 10.8004C9.08988 8.68397 10.8388 7 12.981 7L13.1806 7.0049C15.297 7.10892 16.981 8.8578 16.981 11V16H8.98096V11L8.98585 10.8004Z" fill="#6E798D"/>
</svg>
