<svg xmlns="http://www.w3.org/2000/svg" xmlns:xlink="http://www.w3.org/1999/xlink" width="24" height="24" viewBox="0 0 24 24">
    <defs>
        <path id="prefix__a" d="M0 0H24V24H0z"/>
        <path id="prefix__b" d="M0 0H24V24H0z"/>
        <path id="prefix__c" d="M13.095 2c.99 0 1.83.724 1.978 1.703l.21 1.406c.542.234 1.05.529 1.517.877l1.325-.52c.92-.363 1.969.003 2.464.86l.777 1.347c.495.858.288 1.948-.486 2.565l-1.113.887c.033.287.05.579.05.875 0 .296-.017.588-.05.875l1.113.887c.774.617.981 1.707.486 2.565l-.777 1.346c-.495.858-1.543 1.224-2.464.862l-1.325-.521c-.467.348-.975.643-1.517.877l-.21 1.406c-.147.979-.988 1.703-1.978 1.703H11.54c-.99 0-1.832-.724-1.978-1.703L9.35 18.89c-.54-.233-1.049-.528-1.515-.876l-1.325.52c-.922.363-1.97-.003-2.464-.86l-.778-1.347c-.495-.858-.288-1.948.486-2.565l1.114-.886c-.034-.287-.05-.58-.05-.876 0-.296.016-.589.05-.876l-1.114-.886c-.774-.617-.98-1.707-.486-2.565l.778-1.346c.495-.858 1.542-1.224 2.464-.862l1.325.52c.466-.347.974-.642 1.515-.875l.212-1.407C9.708 2.724 10.55 2 11.54 2h1.555zm0 2h-1.556l-.376 2.506-1.021.44c-.295.128-.579.28-.847.458l-.263.185-.892.665-2.362-.927L5 8.673l1.983 1.578-.129 1.104c-.024.213-.037.428-.037.645 0 .145.006.289.017.431l.02.214.129 1.104L5 15.327l.779 1.346 2.36-.927.893.665c.258.193.532.362.819.507l.291.136 1.02.44L11.54 20h1.555l.375-2.506 1.022-.44c.295-.127.579-.28.848-.458l.263-.185.892-.666 2.362.928.777-1.347-1.982-1.579.128-1.103c.025-.212.037-.427.037-.644 0-.145-.005-.288-.016-.431l-.021-.213-.128-1.103 1.982-1.58-.777-1.346-2.362.928-.892-.666c-.258-.193-.532-.363-.82-.507l-.291-.136-1.022-.44L13.095 4zm-.778 4c2.21 0 4 1.79 4 4s-1.79 4-4 4c-2.209 0-4-1.79-4-4s1.791-4 4-4zm0 2c-1.104 0-2 .895-2 2s.896 2 2 2c1.105 0 2-.895 2-2s-.895-2-2-2z"/>
    </defs>
    <g fill="none" fill-rule="evenodd">
        <mask id="prefix__d" fill="#fff">
            <use xlink:href="#prefix__c"/>
        </mask>
        <g fill="#666" mask="url(#prefix__d)">
            <path d="M0 0H24V24H0z"/>
        </g>
    </g>
</svg>
