<svg width="25" height="24" viewBox="0 0 25 24" fill="none" xmlns="http://www.w3.org/2000/svg">
  <path fill-rule="evenodd" clip-rule="evenodd" d="M17.718 3.23522C17.2956 2.68918 16.5105 2.58895 15.9645 3.01137L12.7293 5.51405L9.49419 3.01137L9.38197 2.93383C8.84508 2.6043 8.1349 2.72558 7.74065 3.23522C7.31824 3.78126 7.41846 4.56634 7.9645 4.98875L10.3198 6.8108H6.98096C5.3241 6.8108 3.98096 8.15394 3.98096 9.8108V17.8108C3.98096 19.4677 5.3241 20.8108 6.98096 20.8108H11.981H13.981H18.981C20.6378 20.8108 21.981 19.4677 21.981 17.8108V9.8108C21.981 8.15394 20.6378 6.8108 18.981 6.8108H15.1389L17.4942 4.98875L17.5974 4.89961C18.0513 4.46273 18.1123 3.74486 17.718 3.23522ZM13.981 18.8108H18.981C19.5332 18.8108 19.981 18.3631 19.981 17.8108V9.8108C19.981 9.25851 19.5332 8.8108 18.981 8.8108H13.981V18.8108ZM11.981 8.8108H6.98096C6.42867 8.8108 5.98096 9.25851 5.98096 9.8108V17.8108C5.98096 18.3631 6.42867 18.8108 6.98096 18.8108H11.981V8.8108Z" fill="#6E798D"/>
</svg>
