<svg width="160" height="122" viewBox="0 0 160 122" fill="none" xmlns="http://www.w3.org/2000/svg">
<path fill-rule="evenodd" clip-rule="evenodd" d="M145.701 93.0363C142.153 96.8355 139.633 100.065 141.033 102.78C142.433 105.495 148.254 103.213 151.802 99.4141C155.351 95.6149 158.069 89.1462 155.621 87.3098C153.173 85.4733 149.25 89.2372 145.701 93.0363Z" fill="#FFEEF3"/>
<path fill-rule="evenodd" clip-rule="evenodd" d="M44.0695 23.3404C49.5239 20.5659 53.569 17.9256 52.7862 13.7165C52.0034 9.50735 44.3405 9.08669 38.886 11.8612C33.4315 14.6358 28.0974 21.2402 30.4123 24.9368C32.7272 28.6334 38.6151 26.1149 44.0695 23.3404Z" fill="#FFEEF3"/>
<path fill-rule="evenodd" clip-rule="evenodd" d="M86.7486 103.276C116.147 102.251 139.099 97.918 143.966 69.8164C148.832 41.7147 116.047 16.6764 86.6482 17.7013C57.2491 18.7262 20.8251 43.586 23.6899 73.0358C26.5546 102.486 57.3499 104.301 86.7486 103.276Z" fill="#FFEEF3"/>
<path d="M81.8897 122C106.938 122 127.244 120.029 127.244 117.598C127.244 115.167 106.938 113.196 81.8897 113.196C56.8412 113.196 36.5354 115.167 36.5354 117.598C36.5354 120.029 56.8412 122 81.8897 122Z" fill="#FFC3D1"/>
<path d="M32.4174 97.8453L22.3386 87.7834" stroke="#FF96A6" stroke-width="3" stroke-linecap="round"/>
<path d="M22.3386 97.8453L32.4174 87.7834" stroke="#FF96A6" stroke-width="3" stroke-linecap="round"/>
<path d="M143.362 41.9896L128.244 26.8969" stroke="#FF96A6" stroke-width="3" stroke-linecap="round"/>
<path d="M128.244 41.9896L143.362 26.8969" stroke="#FF96A6" stroke-width="3" stroke-linecap="round"/>
<path fill-rule="evenodd" clip-rule="evenodd" d="M28.6708 35.2124C28.6708 32.434 26.3963 30.1817 23.5905 30.1817C20.7846 30.1817 18.5101 32.434 18.5101 35.2124C18.5101 37.9908 20.7846 40.2436 23.5905 40.2436C26.3963 40.2436 28.6708 37.9908 28.6708 35.2124Z" fill="#FFD5DF"/>
<g clip-path="url(#clip0_688_499)">
<path opacity="0.5" fill-rule="evenodd" clip-rule="evenodd" d="M77.0993 88.8453H90.4326C99.7959 88.8453 104.477 88.8453 107.84 86.6391C109.296 85.6839 110.546 84.4566 111.519 83.0274C113.766 79.7256 113.766 75.129 113.766 65.9361C113.766 56.7435 113.766 52.1469 111.519 48.8451C110.546 47.4157 109.296 46.1884 107.84 45.2333C105.679 43.8157 102.974 43.309 98.832 43.1279C96.8553 43.1279 95.1537 41.6573 94.7661 39.7544C94.1844 36.8999 91.6317 34.8453 88.6671 34.8453H78.8649C75.9001 34.8453 73.3474 36.8999 72.766 39.7544C72.3783 41.6573 70.6765 43.1279 68.7 43.1279C64.558 43.309 61.8526 43.8157 59.6917 45.2333C58.2358 46.1884 56.9858 47.4157 56.0131 48.8451C53.766 52.1469 53.766 56.7435 53.766 65.9361C53.766 75.129 53.766 79.7256 56.0131 83.0274C56.9858 84.4566 58.2358 85.6839 59.6917 86.6391C63.0547 88.8453 67.7362 88.8453 77.0993 88.8453ZM95.766 64.8453C95.766 71.4726 90.3933 76.8453 83.766 76.8453C77.1386 76.8453 71.766 71.4726 71.766 64.8453C71.766 58.218 77.1386 52.8453 83.766 52.8453C90.3933 52.8453 95.766 58.218 95.766 64.8453ZM101.766 53.5953C100.523 53.5953 99.516 54.6026 99.516 55.8453C99.516 57.0879 100.523 58.0953 101.766 58.0953H104.766C106.009 58.0953 107.016 57.0879 107.016 55.8453C107.016 54.6026 106.009 53.5953 104.766 53.5953H101.766Z" fill="#FF96A6"/>
<path fill-rule="evenodd" clip-rule="evenodd" d="M92.2513 56.36C96.9375 61.0462 96.9375 68.6443 92.2513 73.3306C87.565 78.0168 79.9669 78.0168 75.2807 73.3306C70.5945 68.6443 70.5944 61.0463 75.2807 56.36C79.9669 51.6738 87.565 51.6738 92.2513 56.36ZM81.1143 59.0116C80.2357 58.133 78.811 58.133 77.9323 59.0116C77.0537 59.8903 77.0537 61.315 77.9323 62.1936L80.584 64.8453L77.9323 67.4969C77.0537 68.3756 77.0537 69.8003 77.9323 70.6789C78.811 71.5576 80.2356 71.5576 81.1143 70.6789L83.766 68.0273L86.4176 70.6789C87.2963 71.5576 88.721 71.5576 89.5996 70.6789C90.4783 69.8003 90.4783 68.3756 89.5996 67.4969L86.948 64.8453L89.5996 62.1936C90.4783 61.315 90.4783 59.8903 89.5996 59.0116C88.721 58.133 87.2963 58.133 86.4176 59.0116L83.766 61.6633L81.1143 59.0116Z" fill="#FF6572"/>
<path d="M101.766 53.5953C100.523 53.5953 99.516 54.6026 99.516 55.8453C99.516 57.0879 100.523 58.0953 101.766 58.0953H104.766C106.009 58.0953 107.016 57.0879 107.016 55.8453C107.016 54.6026 106.009 53.5953 104.766 53.5953H101.766Z" fill="#FF6572"/>
<path fill-rule="evenodd" clip-rule="evenodd" d="M64.4331 33.2148C65.0487 33.2148 65.5979 33.6013 65.806 34.1807L66.5471 36.2451C66.6648 36.5697 66.8931 36.8425 67.192 37.0154L69.3906 38.2847C69.6892 38.4569 70.0391 38.5179 70.3783 38.4568L72.5375 38.0673C73.1439 37.957 73.7541 38.2397 74.0621 38.7734L75.2293 40.7867C75.5382 41.3191 75.4798 41.9879 75.0834 42.4587L73.6668 44.1336C73.4436 44.3969 73.3211 44.7309 73.321 45.076V47.6146C73.3211 47.9598 73.4436 48.2937 73.6668 48.5571L75.0834 50.2319C75.4798 50.7027 75.5382 51.3716 75.2293 51.9039L74.0621 53.9172C73.7543 54.4504 73.1449 54.7329 72.539 54.6233L70.3798 54.2338C70.0405 54.1727 69.6906 54.2337 69.3921 54.406L67.1934 55.6752C66.8946 55.8482 66.6662 56.1209 66.5486 56.4456L65.8075 58.51C65.5992 59.0898 65.0492 59.4763 64.4331 59.4758H62.0988C61.4833 59.4758 60.934 59.0893 60.726 58.51L59.9848 56.4456C59.8672 56.1213 59.6395 55.8487 59.3414 55.6752L57.1413 54.406C56.8428 54.2337 56.4929 54.1727 56.1536 54.2338L53.9944 54.6233C53.3881 54.7336 52.7779 54.451 52.4698 53.9172L51.3027 51.9039C50.9938 51.3716 51.0521 50.7027 51.4486 50.2319L52.8652 48.5571C53.0883 48.2937 53.2108 47.9598 53.211 47.6146V45.076C53.2108 44.7309 53.0883 44.3969 52.8652 44.1336L51.4631 42.4587C51.0667 41.9879 51.0084 41.3191 51.3172 40.7867L52.4844 38.7734C52.7923 38.2402 53.4017 37.9577 54.0075 38.0673L56.1668 38.4568C56.506 38.5179 56.8559 38.4569 57.1545 38.2847L59.3546 37.0154C59.6526 36.8419 59.8803 36.5693 59.9979 36.2451L60.7391 34.1807C60.9455 33.6058 61.4881 33.2204 62.0988 33.2148H64.4331Z" fill="#FF6572"/>
<circle cx="63.266" cy="46.3453" r="4.01209" fill="#FFEEF3"/>
</g>
<defs>
<clipPath id="clip0_688_499">
<rect width="72" height="72" fill="white" transform="translate(47.766 25.8453)"/>
</clipPath>
</defs>
</svg>
