<svg width="97" height="97" viewBox="0 0 97 97" fill="none" xmlns="http://www.w3.org/2000/svg">
<rect x="0.6698" y="0.0683594" width="96" height="96" fill="white"/>
<path fill-rule="evenodd" clip-rule="evenodd" d="M48.6698 80.0684C42.3408 80.0684 36.1539 78.1916 30.8916 74.6754C25.6292 71.1592 21.5277 66.1615 19.1057 60.3142C16.6837 54.467 16.05 48.0329 17.2847 41.8255C18.5194 35.6181 21.5671 29.9162 26.0424 25.441C30.5177 20.9657 36.2195 17.918 42.4269 16.6832C48.6343 15.4485 55.0684 16.0822 60.9157 18.5042C66.7629 20.9262 71.7606 25.0278 75.2768 30.2901C78.793 35.5525 80.6698 41.7394 80.6698 48.0684C80.6714 52.2711 79.8448 56.433 78.2372 60.3161C76.6296 64.1993 74.2726 67.7276 71.3008 70.6993C68.329 73.6711 64.8007 76.0282 60.9176 77.6358C57.0344 79.2433 52.8726 80.07 48.6698 80.0684Z" fill="white"/>
<path fill-rule="evenodd" clip-rule="evenodd" d="M36.9726 32.3441C33.4968 40.5102 39.4 49.5022 47.5113 50.7167C53.4145 52.0957 56.5596 57.9441 53.029 63.5715C49.4983 69.1441 40.4499 67.5441 37.5257 66.1102C39.9085 68.0918 42.7143 69.5002 45.727 70.227C48.7397 70.9538 51.879 70.9795 54.9033 70.3022C68.2549 67.8748 76.3661 58.3296 78.5223 45.8054C79.6804 74.2748 49.1128 85.8603 32.232 73.9441C28.766 71.4549 26.027 68.0858 24.2979 64.1846C22.5687 60.2833 21.9121 55.9913 22.3957 51.7515C22.8793 47.5117 24.4857 43.4778 27.049 40.0662C29.6122 36.6545 33.0396 33.9888 36.9772 32.3441H36.9726Z" fill="url(#paint0_linear_1076_19953)"/>
<path d="M59.098 63.7927C62.6287 55.6266 56.7255 46.6346 48.5594 45.3653C42.6561 43.9862 39.511 38.1378 43.0417 32.5104C46.5723 26.9379 55.6207 28.5378 58.5449 29.9718C56.1628 27.991 53.3581 26.5831 50.3465 25.8564C47.3349 25.1297 44.1968 25.1034 41.1735 25.7798C27.764 28.2072 19.6497 37.8072 17.4981 50.2765C16.3354 21.8072 46.9045 10.2201 63.7883 22.1379C67.2643 24.6234 70.0135 27.9921 71.7518 31.8957C73.4901 35.7993 74.1546 40.0964 73.6764 44.3427C73.1983 48.5891 71.5949 52.6307 69.032 56.0501C66.4691 59.4694 63.0397 62.1423 59.098 63.7927Z" fill="url(#paint1_linear_1076_19953)"/>
<mask id="mask0_1076_19953" style="mask-type:luminance" maskUnits="userSpaceOnUse" x="17" y="17" width="57" height="47">
<path d="M59.098 63.7927C62.6287 55.6266 56.7255 46.6346 48.5594 45.3653C42.6561 43.9862 39.511 38.1378 43.0417 32.5104C46.5723 26.9379 55.6207 28.5378 58.5449 29.9718C56.1628 27.991 53.3581 26.5831 50.3465 25.8564C47.3349 25.1297 44.1968 25.1034 41.1735 25.7798C27.764 28.2072 19.6497 37.8072 17.4981 50.2765C16.3354 21.8072 46.9045 10.2201 63.7883 22.1379C67.2643 24.6234 70.0135 27.9921 71.7518 31.8957C73.4901 35.7993 74.1546 40.0964 73.6764 44.3427C73.1983 48.5891 71.5949 52.6307 69.032 56.0501C66.4691 59.4694 63.0397 62.1423 59.098 63.7927Z" fill="white"/>
</mask>
<g mask="url(#mask0_1076_19953)">
<path d="M79.0705 10.2202H16.3398V63.7928H79.0705V10.2202Z" fill="url(#paint2_linear_1076_19953)"/>
<mask id="mask1_1076_19953" style="mask-type:luminance" maskUnits="userSpaceOnUse" x="16" y="10" width="64" height="54">
<path d="M79.0705 10.2202H16.3398V63.7928H79.0705V10.2202Z" fill="white"/>
</mask>
<g mask="url(#mask1_1076_19953)">
<path d="M80.6278 9.61377H16.0092V64.1677H80.6278V9.61377Z" fill="url(#paint3_linear_1076_19953)"/>
</g>
</g>
<defs>
<linearGradient id="paint0_linear_1076_19953" x1="31.0824" y1="35.7663" x2="59.2328" y2="77.497" gradientUnits="userSpaceOnUse">
<stop stop-color="#00B9F2"/>
<stop offset="0.112" stop-color="#009FDE"/>
<stop offset="0.34" stop-color="#006AB5"/>
<stop offset="0.663" stop-color="#033B83"/>
<stop offset="1" stop-color="#033B83"/>
</linearGradient>
<linearGradient id="paint1_linear_1076_19953" x1="43.6738" y1="29.9004" x2="61.9704" y2="58.5057" gradientUnits="userSpaceOnUse">
<stop stop-color="#00873A"/>
<stop offset="1" stop-color="#B2D334"/>
</linearGradient>
<linearGradient id="paint2_linear_1076_19953" x1="45.5096" y1="24.5777" x2="67.0134" y2="56.9177" gradientUnits="userSpaceOnUse">
<stop stop-color="#00873A"/>
<stop offset="1" stop-color="#B2D334"/>
</linearGradient>
<linearGradient id="paint3_linear_1076_19953" x1="46.0568" y1="24.2342" x2="67.8561" y2="57.3978" gradientUnits="userSpaceOnUse">
<stop stop-color="#00873A"/>
<stop offset="1" stop-color="#B2D334"/>
</linearGradient>
</defs>
</svg>
