<svg width="24" height="24" viewBox="0 0 24 24" fill="none" xmlns="http://www.w3.org/2000/svg">
  <path d="M12 2.54987C14.4198 2.54987 16.3936 4.46006 16.4958 6.85467L16.5 7.04987V8.84987C16.5 9.34692 16.0971 9.74987 15.6 9.74987C15.1384 9.74987 14.758 9.40243 14.7061 8.95482L14.7 8.84987V7.04987C14.7 5.55882 13.491 4.34987 12 4.34987C10.5622 4.34987 9.38671 5.47401 9.30458 6.89123L9.3 7.04987V8.84987C9.3 9.34692 8.89706 9.74987 8.4 9.74987C7.93845 9.74987 7.55804 9.40243 7.50605 8.95482L7.5 8.84987V7.04987C7.5 4.56471 9.51484 2.54987 12 2.54987Z" fill="#6E798D"/>
  <path d="M3.9 8.0624L4.89694 8.14059L4.9 8.10156V8.0624H3.9ZM3 19.5374L2.00306 19.4592L2 19.4982V19.5374H3ZM21 19.5374H22V19.4982L21.9969 19.4592L21 19.5374ZM20.1 8.0624H19.1V8.10156L19.1031 8.14059L20.1 8.0624ZM18.3 5.1499H5.7V7.1499H18.3V5.1499ZM5.7 5.1499C4.09761 5.1499 2.9 6.51212 2.9 8.0624H4.9C4.9 7.50074 5.31468 7.1499 5.7 7.1499V5.1499ZM2.90306 7.98421L2.00306 19.4592L3.99694 19.6156L4.89694 8.14059L2.90306 7.98421ZM2 19.5374C2 21.0877 3.19761 22.4499 4.8 22.4499V20.4499C4.41468 20.4499 4 20.0991 4 19.5374H2ZM4.8 22.4499H19.2V20.4499H4.8V22.4499ZM19.2 22.4499C20.8024 22.4499 22 21.0877 22 19.5374H20C20 20.0991 19.5853 20.4499 19.2 20.4499V22.4499ZM21.9969 19.4592L21.0969 7.98421L19.1031 8.14059L20.0031 19.6156L21.9969 19.4592ZM21.1 8.0624C21.1 6.51212 19.9024 5.1499 18.3 5.1499V7.1499C18.6853 7.1499 19.1 7.50074 19.1 8.0624H21.1Z" fill="#6E798D"/>
</svg>
