<?xml version="1.0" encoding="UTF-8"?>
<svg id="Layer_1" data-name="Layer 1" xmlns="http://www.w3.org/2000/svg" viewBox="0 0 632.39 235.72">
  <defs>
    <style>
      .cls-1 {
        fill: #fff;
      }

      .cls-2 {
        fill: #b0882c;
      }

      .cls-3 {
        fill: #253a56;
      }
    </style>
  </defs>
  <g>
    <path class="cls-3" d="m579.8,21.6c1.54.25,3.09.44,4.61.76,11.69,2.46,21.09,12.59,22.66,24.44.22,1.64.33,3.3.34,4.96.02,16.74.01,33.49.03,50.23,0,.71-.2,1.15-.8,1.57-12.53,8.89-25.41,17.23-39.07,24.31-14.74,7.64-30.07,13.71-46.27,17.48-8.2,1.91-16.5,3.2-24.9,3.83-8.11.61-16.21.61-24.3-.06-22.78-1.88-44.75-6.97-65.58-16.58-1.17-.54-2.29-1.18-3.46-1.71-.59-.27-.76-.64-.76-1.27.02-13.46.01-26.91.01-40.37,0-12.66-.06-25.32.02-37.97.06-9.48,3.83-17.27,11.21-23.22,4.54-3.66,9.77-5.7,15.59-6.21.27-.02.53-.11.8-.17,49.96,0,99.91,0,149.87,0Z"/>
    <path class="cls-1" d="m450.25,104.87c.99-.07,1.75-.04,2.45-.21.98-.22,1.98-.5,2.88-.92,3.36-1.57,6.76-3.08,10.02-4.84,26.65-14.43,54.95-24.52,84.27-31.84,9.4-2.34,18.9-4.24,28.35-6.38,1.6-.36,3.24-.79,4.71-1.51,2.41-1.19,2.86-3.67,1.23-5.81-1.02-1.33-2.37-2.12-4.04-2.31-4.09-.46-8.16-.15-12.23.25-9.1.91-18.11,2.48-27.08,4.25-15.83,3.13-31.51,6.85-47.05,11.18-11.23,3.13-22.37,6.53-33.12,11.07-4.95,2.09-9.8,4.4-14.16,7.6-1.95,1.43-3.67,3.06-4.91,5.17-2.49,4.25-1.23,12.48,5.73,13.89,1.05.21,2.12.29,2.94.39Z"/>
    <path class="cls-2" d="m430.8,214.12c-.96-.14-1.93-.28-2.89-.41-8.53-1.16-15.28-5.31-20.26-12.28-3.21-4.5-5-9.55-5.21-15.1-.12-3.04-.14-6.08-.15-9.12-.02-7.87,0-15.74,0-23.61v-1.11c.28.11.48.16.64.26,10.87,6.71,22.64,11.22,35.01,14.16,5.71,1.36,11.51,2.42,17.32,3.3,4.69.71,9.44,1.06,14.18,1.35,4.96.3,9.94.47,14.91.47,4.45,0,8.91-.15,13.34-.51,8.29-.66,16.45-2.2,24.51-4.28,18.25-4.73,35.53-11.9,52.1-20.81,11.39-6.12,22.27-13.03,32.47-20.99.16-.13.34-.23.65-.43,0,.43,0,.72,0,1.02,0,19.43.03,38.85-.01,58.28-.03,14.69-10.02,25.92-22.63,28.86-1.54.36-3.14.47-4.72.71-.39.06-.77.16-1.15.24h-148.11Z"/>
    <path class="cls-1" d="m437.95,167.56c5.71,1.36,11.51,2.42,17.32,3.3,4.69.71,9.44,1.06,14.18,1.35,4.96.3,9.94.47,14.91.47,4.45,0,8.91-.15,13.34-.51,2.72-.3,5.35-.59,7.91-.9,5.59-.81,11.11-1.96,16.59-3.38,18.25-4.73,35.53-11.9,52.1-20.81,11.39-6.12,22.27-13.03,32.47-20.99.16-.13.34-.23.65-.43,0,0,0,0,0,0,0-7.68,0-15.35.01-23.03,0,.71-.2,1.15-.8,1.57-12.53,8.89-25.41,17.23-39.07,24.31-14.74,7.64-30.07,13.71-46.27,17.48-8.2,1.91-16.5,3.2-24.9,3.83-8.11.61-16.21.61-24.3-.06-22.78-1.88-44.75-6.97-65.58-16.58-1.17-.54-2.29-1.18-3.46-1.71-.59-.27-.76-.64-.76-1.27v22.95c.27.11.47.16.64.26,10.87,6.71,22.64,11.22,35.01,14.16Z"/>
  </g>
  <g>
    <g>
      <path class="cls-3" d="m218.26,165.85v-11.11c1.61,0,3.19.06,4.75-.01,3.02-.15,6.02-.51,8.9-1.5,5.19-1.78,8.12-5.82,8.03-11.19-.32,0-.64,0-.96,0-2.85-.05-5.71,0-8.56-.16-3.37-.18-6.51-1.2-9.37-3.03-4.08-2.62-6.2-6.49-6.91-11.15-.63-4.16-.37-8.28,1.08-12.28,2.86-7.88,10.61-12.85,18.96-12.29,5.01.34,9.26,2.07,12.41,6.1,2.02,2.59,3.19,5.59,3.66,8.8.38,2.54.52,5.12.66,7.68.1,1.74.02,3.48.02,5.25.22.04.38.1.53.1,4.79-.02,9.59,0,14.38-.12,1.21-.03,2.45-.42,3.6-.86,1.96-.75,2.64-2.4,2.64-4.39,0-4.41,0-8.81,0-13.22,0-.33,0-.65,0-1.03h10.94v.92c0,4.3.1,8.59-.03,12.89-.11,3.76,2.97,5.57,5.45,5.72.99.06,1.99.09,2.99.09,5.54-.02,11.09-.01,16.63-.1,2.33-.04,4.64-.4,6.81-1.32,2-.85,3.55-2.14,4.04-4.4.31-1.43,0-2.81-.69-4.01-1.68-2.89-3.3-5.85-5.29-8.52-3.77-5.06-7.8-9.93-11.69-14.91-.25-.32-.4-.86-.32-1.25.49-2.58,1.04-5.15,1.61-7.72.07-.31.36-.68.65-.82,12.46-6.07,24.94-12.12,37.41-18.17.14-.07.29-.12.51-.21,1.49,3.34,2.97,6.64,4.49,10.03-11.22,5.19-22.41,10.37-33.64,15.56.1.18.15.3.23.41,6.77,8.98,13.5,17.99,20.34,26.92,1.45,1.9,3.19,3.62,4.99,5.2,2.63,2.32,5.79,3.36,9.33,3.34,6.12-.04,12.25-.13,18.37.03,5.51.14,7.32-3.51,6.93-7.81-.44-4.89-1.51-9.67-2.65-14.44-.06-.27-.12-.53-.2-.89,3.43-1.04,6.83-2.07,10.35-3.13.39,1.71.86,3.36,1.14,5.04.7,4.23,1.45,8.46,1.92,12.71.46,4.19-.26,8.25-2.59,11.86-3.3,5.1-8.17,7.45-14.09,7.57-6.68.14-13.36.05-20.04.03-6.61-.02-12.3-2.25-16.83-7.17-.84-.92-1.72-1.8-2.58-2.7-.01-.01-.05,0-.07,0-.03,0-.07.01-.08.03-2.19,4.88-6.41,7.12-11.22,8.58-3.13.94-6.35,1.28-9.6,1.29-5.38.02-10.75.02-16.13-.02-3.25-.03-6.4-.57-9.28-2.18-.91-.51-1.74-1.16-2.67-1.79-2,1.62-4.3,2.78-6.87,3.24-2.14.38-4.33.65-6.51.71-4.07.11-8.15.03-12.22.03-.3,0-.6,0-1,0-.09.97-.15,1.9-.25,2.82-1.05,10.1-7.01,16.03-16.3,19.05-5.19,1.69-10.59,1.93-16.11,1.94Zm21.74-34.85c0-.35,0-.6,0-.85-.03-2.35.04-4.71-.12-7.05-.1-1.47-.41-2.97-.89-4.36-1.01-2.97-3.23-4.58-6.1-4.66-3.41-.1-6.25,1.46-7.35,4.34-.57,1.49-.86,3.15-.96,4.75-.24,3.81,1.86,6.52,5.55,7.46.72.18,1.47.33,2.2.35,2.51.04,5.02.02,7.66.02Z"/>
      <path class="cls-3" d="m266.99,90.93c2.71-2.61,5.38-5.18,7.96-7.68,2.51,2.51,5.18,5.19,7.78,7.79-2.52,2.52-5.17,5.17-7.69,7.69-2.6-2.52-5.3-5.14-8.05-7.8Z"/>
      <path class="cls-3" d="m375.09,81.07c2.55,2.56,5.02,5.05,7.44,7.48-2.41,2.41-4.88,4.87-7.24,7.23-2.4-2.32-4.9-4.74-7.44-7.2,2.44-2.53,4.84-5.01,7.24-7.5Z"/>
      <path class="cls-3" d="m349.19,88.67c2.49-2.6,4.88-5.09,7.22-7.53,2.53,2.53,5.03,5.03,7.53,7.53-2.43,2.38-4.91,4.82-7.31,7.17-2.39-2.31-4.88-4.71-7.44-7.17Z"/>
    </g>
    <g>
      <path class="cls-2" d="m76,131.89c-.38-.47-.6-.77-.85-1.04-3.12-3.54-4.49-7.68-3.99-12.34.55-5.11,3.16-9.09,7.34-12.02,6.45-4.53,15.22-4.75,21.4-.49,4.34,2.99,6.63,7.22,7.19,12.45.47,4.37-.48,8.35-3.06,11.92-.12.17-.21.37-.38.68.6.07,1.11.18,1.62.18,8.31.01,16.63.04,24.94,0,3.88-.02,6.32-2.51,6.19-6.64-.08-2.72-.57-5.43-1.04-8.12-.46-2.61-1.13-5.18-1.69-7.77-.04-.18-.03-.38-.05-.63,3.37-1.02,6.71-2.02,10.2-3.08.6,2.97,1.22,5.79,1.75,8.64.76,4.05,1.38,8.11,1.27,12.26-.2,7.66-5.51,14.16-12.99,15.69-1.34.27-2.74.4-4.12.4-8.62.02-17.24.04-25.85-.07-4.65-.06-9.26-.6-13.78-1.77-.45-.12-.97-.05-1.44.03-2.96.52-5.9,1.24-8.88,1.55-4.62.49-9.26.86-13.89.99-5.15.15-10.3,0-15.45-.08-2.43-.04-4.87-.19-7.29-.38-3.44-.27-6.89-.48-10.25-1.37-6.02-1.59-9.57-5.59-11.13-11.49-.96-3.64-.72-7.31.04-10.94.62-2.94,1.45-5.84,2.17-8.76.16-.65.44-.76,1.05-.56,2.89.95,5.78,1.88,8.69,2.77.63.19.73.41.57,1.05-.8,3.33-1.65,6.65-2.24,10.01-.23,1.34-.06,2.84.3,4.17.69,2.55,2.72,3.57,5.2,3.76,5.48.41,10.96.94,16.46,1.15,5.73.22,11.46.15,17.2.15,1.53,0,3.06-.2,4.82-.32Zm13.79-18.06c-1.65-.03-3.03.37-4.31,1.06-4.19,2.26-4.98,6.26-2.76,9.79,1.49,2.37,3.92,3.49,6.45,4.42.21.08.52.04.71-.07,1.45-.79,3.01-1.45,4.3-2.45,2.28-1.75,3.1-4.26,2.59-7.03-.57-3.16-3.96-5.73-6.99-5.72Z"/>
      <path class="cls-2" d="m192.68,98.11c0-6.29.01-12.58-.02-18.87,0-.78.18-1.05,1.01-1.04,2.99.05,5.98.04,8.98,0,.65,0,.87.18.87.84-.02,11.61.03,23.22-.04,34.82-.03,4.28-.32,8.55-1.41,12.74-2.07,7.98-7.35,12.47-15.16,14.33-3.25.78-6.54,1.05-9.87,1.05-6.12,0-12.25-.01-18.37.02-.81,0-1.11-.18-1.1-1.06.05-2.91.05-5.82,0-8.73-.01-.83.27-1.01,1.04-1.01,5.98.03,11.97.09,17.95-.02,2.61-.05,5.26-.27,7.81-.81,4.66-.97,7.3-4.02,7.78-8.74.29-2.8.46-5.62.5-8.43.08-5.04.02-10.08.02-15.13Z"/>
      <path class="cls-2" d="m168.22,123.65c-1.52,0-3.05-.01-4.57,0-.5,0-.75-.11-.79-.68-.13-2.1-.31-4.19-.45-6.28-.22-3.2-.44-6.4-.65-9.6-.12-1.88-.23-3.75-.35-5.63-.21-3.2-.43-6.4-.64-9.6-.13-1.93-.24-3.86-.36-5.8-.11-1.77-.21-3.53-.34-5.3-.05-.64.18-.85.83-.92,3.05-.31,6.09-.67,9.13-1.07.6-.08.71.08.74.62.26,4.36.55,8.72.83,13.08.28,4.3.56,8.61.84,12.91.28,4.25.55,8.5.83,12.75.1,1.57.2,3.15.33,4.72.05.64-.2.81-.8.8-1.52-.03-3.05-.01-4.57-.01Z"/>
      <path class="cls-2" d="m82.29,85.31c2.69-2.61,5.3-5.15,7.83-7.61,2.49,2.48,5.13,5.11,7.72,7.69-2.51,2.51-5.11,5.1-7.57,7.55-2.62-2.51-5.3-5.06-7.98-7.63Z"/>
      <path class="cls-2" d="m145.57,158.73c-2.36,2.35-4.77,4.77-7.1,7.1-2.37-2.28-4.82-4.63-7.34-7.06,2.42-2.51,4.79-4.96,7.11-7.37,2.51,2.52,4.95,4.95,7.33,7.33Z"/>
      <path class="cls-2" d="m119.68,166.12c-.58-.61-1.21-1.3-1.86-1.97-1.57-1.6-3.15-3.2-4.73-4.79-.33-.33-.54-.6-.12-1.03,2.18-2.24,4.35-4.5,6.52-6.76.05-.05.14-.07.43-.21.66.72,1.35,1.52,2.08,2.27,1.53,1.56,3.09,3.1,4.64,4.65.26.26.55.51.16.89-2.34,2.28-4.67,4.56-7.12,6.95Z"/>
    </g>
  </g>
</svg>