<svg width="25" height="24" viewBox="0 0 25 24" fill="none" xmlns="http://www.w3.org/2000/svg">
  <path fill-rule="evenodd" clip-rule="evenodd" d="M3.67375 9.30711C3.28323 8.91658 3.28323 8.28342 3.67375 7.89289L7.26956 4.29708C7.30024 4.26605 7.33293 4.23701 7.36743 4.21018L7.36796 4.2097C7.43648 4.15643 7.51033 4.11331 7.58748 4.08033C7.70822 4.02863 7.84118 4 7.98083 4C8.11154 4 8.23638 4.02508 8.35082 4.07068C8.47358 4.11948 8.58862 4.19355 8.68797 4.29289L12.288 7.89289L12.3712 7.9871C12.6762 8.37939 12.6484 8.94662 12.288 9.30711L12.1938 9.3903C11.8015 9.69532 11.2342 9.66759 10.8738 9.30711L8.98083 7.4147V19L8.97411 19.1166C8.91634 19.614 8.49367 20 7.98083 20C7.42855 20 6.98083 19.5523 6.98083 19V7.41475L5.08797 9.30711L4.99376 9.3903C4.60147 9.69532 4.03424 9.66759 3.67375 9.30711ZM13.6738 14.6929C13.3133 15.0534 13.2855 15.6206 13.5906 16.0129L13.6738 16.1071L17.2738 19.7071C17.3746 19.8079 17.4915 19.8827 17.6163 19.9315C17.7094 19.9679 17.8093 19.9908 17.9135 19.9978C18.0531 20.0071 18.1942 19.9874 18.3271 19.9384C18.4213 19.9037 18.5114 19.8544 18.5938 19.7903L18.5949 19.7893C18.6274 19.764 18.6584 19.7366 18.6875 19.7075L18.688 19.7071L22.288 16.1071C22.6785 15.7166 22.6785 15.0834 22.288 14.6929C21.9275 14.3324 21.3603 14.3047 20.968 14.6097L20.8738 14.6929L18.9808 16.5853V5C18.9808 4.44772 18.5331 4 17.9808 4C17.468 4 17.0453 4.38604 16.9876 4.88338L16.9808 5V16.5853L15.088 14.6929C14.7275 14.3324 14.1603 14.3047 13.768 14.6097L13.6738 14.6929Z" fill="#6E798D"/>
</svg>
